<?xml version="1.0" encoding="UTF-8" standalone="no"?>
<svg xmlns="http://www.w3.org/2000/svg" width="280" height="25" viewBox="0 0 74.083334 6.6145833" version="1.1">
  <style>
    path { fill: #eee; }
    #banner { fill: #c0304d; }
  </style>
  <g transform="translate(-20.458438,-34.877472)">
    <path id="spear" d="m 116.89062,133.41797 c -0.38781,0.30879 -0.78092,0.79186 -1.07617,1.31445 -0.30209,0.53462 -0.48664,1.08244 -0.50781,1.44531 0.16796,0.11112 0.36521,0.24872 0.54297,0.4375 0.17329,0.18369 0.31616,0.41922 0.36133,0.70118 0.48832,0.0699 0.94103,0.008 1.39453,-0.0937 0.14559,-0.50487 0.55682,-0.83094 0.87109,-1.04297 -0.0208,-0.36284 -0.20734,-0.91209 -0.50976,-1.44727 -0.29526,-0.52256 -0.68826,-1.00566 -1.07618,-1.31445 z m 2.81446,3.5625 v 0.002 c 0.003,-8.7e-4 0.007,-7.7e-4 0.01,-0.002 -0.003,3.4e-4 -0.007,-3e-4 -0.01,0 z m 0.76953,0.28515 v 0.002 c -0.78339,0.0227 -1.50871,0.14034 -2.0957,0.31836 10e-4,0.0431 -0.003,0.0866 -0.0137,0.1289 1.99905,-0.44152 3.89844,-0.0195 3.89844,-0.0195 0,0 -0.49368,-0.0799 -1.23828,-0.0879 -0.7893,-0.008 -1.69088,0.0738 -2.69922,0.30664 -0.0212,0.004 -0.0413,0.0118 -0.0625,0.0156 v 0.002 c 0.0577,0.0567 0.0799,0.13402 0.0996,0.19336 0.743,-0.21241 1.81057,-0.36081 2.9961,-0.28711 1.42821,0.0888 2.96709,0.49011 4.07031,1.5 1.02405,0.93759 1.28687,1.78682 1.63867,2.49805 0.24242,0.49009 0.71876,1.13538 1.26953,1.39844 -0.44555,-0.58462 -0.78991,-1.28645 -1.09375,-1.96094 -0.46135,-1.02422 -0.98605,-2.05731 -2.26562,-2.89844 -1.04715,-0.68837 -2.40304,-1.02433 -3.70313,-1.09766 -0.2711,-0.0151 -0.53965,-0.0155 -0.80078,-0.0117 z m -2.50781,0.20899 c -0.61831,0.15496 -1.26755,0.29092 -2.00586,0.13672 -0.22375,-0.008 -0.29814,0.28076 -0.15625,0.34765 0.14967,-0.0552 0.30429,-0.0689 0.43554,-0.084 0.37414,-0.0454 0.65235,-0.0176 0.65235,-0.0176 0,0 -0.27361,0.0579 -0.62696,0.1543 -0.15918,0.045 -0.34563,0.0855 -0.48828,0.16601 -0.0321,0.0189 -0.046,0.0518 -0.0469,0.082 9e-5,0.004 -9e-5,0.004 0,0.008 0.002,0.0567 0.0476,0.11018 0.11914,0.0879 l 2.08008,-0.56055 c 0.17227,-0.048 0.17707,-0.31609 0.0371,-0.31836 z m 0.0234,0.64844 -0.79882,0.21484 c 0.0747,0.0189 0.14458,0.0379 0.20898,0.0606 0.14566,0.0525 0.41339,0.13527 0.47852,0.15039 0.19094,0.0151 0.34116,-0.40311 0.11132,-0.42578 z m 0.87305,0.22851 v 0.002 c 9.8e-4,-2.3e-4 0.003,2.2e-4 0.004,0 -0.001,-4.6e-4 -0.003,-8.2e-4 -0.004,-0.002 z m -2.53711,0.21289 v 0.002 l -0.0937,0.0254 v 3.47461 l -7.69336,0.22851 -0.0215,-0.004 c -1.28124,-0.30085 -2.96555,-1.25865 -3.74414,-2.31446 l -26.853518,3.14453 27.923828,0.25977 -27.925781,0.25976 26.855471,3.13868 c 0.77859,-1.05581 2.4629,-2.01361 3.74414,-2.31446 l 0.0215,-0.004 7.69336,0.22851 v 3.73633 l 0.0937,0.0273 c 0.39058,0.0189 0.71401,-0.061 0.97461,-0.14453 0.0915,-0.0302 0.17267,-0.0595 0.25,-0.0859 v -3.49219 l 10.80078,0.32031 c 0.008,0 0.0402,-0.007 0.0918,-0.0762 0.0517,-0.0699 0.1096,-0.19074 0.1582,-0.3457 0.0648,-0.20712 0.10314,-0.49149 0.12696,-0.79688 -1.15589,-0.56073 -1.6278,-1.18985 -1.95704,-1.85547 -0.0363,-0.0733 -0.0711,-0.14662 -0.10546,-0.2207 l -9.11524,0.27148 v -3.23242 c -0.0773,-0.0264 -0.15846,-0.0557 -0.25,-0.0859 -0.2606,-0.0835 -0.58403,-0.16342 -0.97461,-0.14453 z m 12.02539,3.14453 v 0.002 l -0.53906,0.0137 c 0.2609,0.56704 0.53391,1.09145 0.94141,1.5332 -0.0102,-0.44103 -0.0639,-0.84304 -0.15235,-1.125 -0.0485,-0.15496 -0.10646,-0.27578 -0.1582,-0.3457 -0.0516,-0.0699 -0.0835,-0.0781 -0.0918,-0.0781 z m 0.52539,0.2168 c 0.0136,0.0378 0.0284,0.0685 0.041,0.10742 0.11138,0.35566 0.17578,0.82792 0.17578,1.34961 0,0.0661 -0.007,0.1259 -0.0117,0.1875 0.0663,0.0552 0.13416,0.10876 0.20703,0.16016 2.07729,0.70401 4.74776,0.38567 7.07422,-1.29297 l 0.11524,-0.082 1.16406,1.16992 -0.17969,0.10938 c -1.01314,0.6147 -1.99949,0.99909 -2.94336,1.20507 h 38.52149 c 1.5905,-0.84075 3.25098,-1.82109 4.92187,-2.91406 z m 66.03125,0 c -0.40305,0.29858 -0.73223,0.52589 -1.11914,0.8086 -0.7736,0.56691 -1.51342,1.10169 -2.22265,1.60546 -0.21857,0.15459 -0.48134,0.35188 -0.69336,0.5 h 35.55273 c 0.62337,-0.75987 1.18318,-1.58778 1.68945,-2.57617 0.0575,-0.11263 0.0979,-0.22526 0.15235,-0.33789 z m 44.14649,0 c -0.32213,0.61055 -0.63761,1.2046 -0.99024,1.89063 -0.17321,0.33713 -0.35406,0.68063 -0.5332,1.02343 h 22.83984 c 0.72934,-0.97545 1.40425,-1.91452 2.09961,-2.91406 z m 27.42773,0 c -0.42753,0.98532 -0.81485,1.96612 -1.2207,2.91406 h 0.66211 c 0.70265,-0.92768 1.35024,-1.91634 1.99219,-2.91406 z m 5.73438,0 c -0.5506,0.9385 -1.08576,1.91411 -1.63868,2.91406 h 32.50196 c 0.76279,-0.9787 1.39596,-1.91294 2.05273,-2.91406 -0.46107,0 -0.69805,0.0113 -0.83789,0 z m 36.28515,0 c -0.70885,1.12732 -1.39183,1.97546 -2.02539,2.91406 h 3.81641 19.69531 c 0.45503,-0.65257 0.80188,-1.3234 0.96289,-1.94336 0.0786,-0.30047 0.0935,-0.63243 0.0859,-0.9707 z m 23.58008,0 c -0.0333,0.23773 -0.0732,0.47339 -0.125,0.70508 -0.16532,0.73867 -0.42301,1.48331 -0.73633,2.20898 h 9.20899 8.94726 6.66797 c 0.15043,0 0.31791,-0.12208 0.45508,-0.38476 0.1372,-0.26268 0.22852,-0.6459 0.22852,-1.07227 0,-0.42633 -0.0913,-0.80959 -0.22852,-1.07226 -0.13757,-0.26268 -0.30505,-0.38477 -0.45508,-0.38477 h -6.66797 -8.94726 z m -195.65039,0.85156 c -1.82062,1.27102 -3.83535,1.75999 -5.64844,1.5918 1.78546,0.55181 3.94844,0.43728 6.3086,-0.92773 z m -7.38281,1.20508 c -0.0272,0.27818 -0.0654,0.54141 -0.13086,0.75 -0.0121,0.0389 -0.028,0.0696 -0.041,0.10742 v 0.002 h 2.33985 c -0.54459,-0.12284 -1.06323,-0.29822 -1.54297,-0.52344 -0.21147,-0.0994 -0.40087,-0.2005 -0.57031,-0.30859 -0.0197,-0.0113 -0.0355,-0.0198 -0.0547,-0.0274 z m -11.16992,4.49219 v 0.002 c -0.0651,0.0151 -0.33283,0.0979 -0.47852,0.15039 -0.0644,0.0227 -0.13426,0.0436 -0.20898,0.0625 l 0.79882,0.21289 c 0.22988,-0.0227 0.0796,-0.44285 -0.11132,-0.42773 z m -2.0293,0.19727 c -0.0704,-0.0113 -0.11473,0.0389 -0.11719,0.0918 9e-5,0.004 0,0.003 0,0.008 3.7e-4,0.0302 0.014,0.0631 0.0449,0.082 0.14264,0.0805 0.32914,0.12103 0.48828,0.16601 0.35339,0.0964 0.62696,0.15234 0.62696,0.15235 0,0 -0.27822,0.0258 -0.65235,-0.0195 -0.1313,-0.0151 -0.28588,-0.0304 -0.43554,-0.0859 -0.14189,0.0673 -0.0675,0.35716 0.15625,0.34961 0.73831,-0.15459 1.38755,-0.0191 2.00586,0.13476 0.13973,-0.003 0.13492,-0.27269 -0.0371,-0.32031 z m 3.30078,0.002 v 0.002 c -0.27991,-0.0189 -0.52369,-0.0128 -0.75977,0.0137 0.006,0.034 0.0109,0.11759 -0.0254,0.21094 0.22285,-0.0378 0.3969,-0.05 0.60938,-0.0391 0.17533,0.0113 0.38859,0.019 0.80469,0.084 0.23898,0.0382 0.48095,0.0901 0.67968,0.15625 0.57342,0.19125 0.91797,0.39063 0.91797,0.39063 0,0 -0.36717,-0.15559 -0.94531,-0.29883 -0.27583,-0.0684 -0.5918,-0.11638 -0.92187,-0.15039 -0.33177,-0.034 -0.4597,-0.0234 -0.63477,-0.0234 -0.21933,0.0113 -0.40129,0.0113 -0.57422,0.0918 0.0749,0.034 0.0801,0.17661 0.0703,0.24805 0.0874,-0.0151 0.11948,-0.0258 0.37305,-0.0371 0.87865,-0.0446 1.6807,0.0341 2.53125,0.33007 0.54256,0.18974 1.06994,0.60116 1.60547,1.06446 -0.0845,-0.23207 -0.29367,-0.54483 -0.45117,-0.69336 -0.77157,-0.72824 -1.54742,-1.04747 -2.30274,-1.20508 -0.38163,-0.0805 -0.69663,-0.12601 -0.97656,-0.14453 z m -2.22656,1.01953 c -0.23528,-0.0189 -0.47527,-0.0202 -0.72461,0.0176 -0.053,0.25927 -0.18694,0.47962 -0.34961,0.65234 -0.17771,0.18822 -0.375,0.32653 -0.54297,0.4375 0.0212,0.36284 0.20571,0.9107 0.50781,1.44531 0.29526,0.52252 0.68836,1.00567 1.07617,1.31446 0.38791,-0.30879 0.78092,-0.79194 1.07618,-1.31446 0.30247,-0.53518 0.48898,-1.08443 0.50976,-1.44726 -0.30338,-0.20485 -0.6974,-0.51672 -0.85547,-0.99219 -0.23127,-0.0518 -0.46197,-0.0929 -0.69726,-0.11328 z m 7.16406,2.52344 c 1.19321,2.53855 4.56561,3.31965 6.73242,1.51172 -1.42305,0.50732 -2.6239,0.72732 -3.69922,0.44726 -1.00761,-0.2623 -1.9746,-0.98583 -3.0332,-1.95898 z m 9.5293,0.41211 v 0.002 c -0.43021,0.0265 -0.88319,0.15684 -1.35157,0.41797 1.0306,-0.20183 1.8814,-0.12284 2.47852,0.27929 0.70443,0.47437 1.14115,1.21441 1.51758,1.89454 l 0.53906,-0.27735 c -0.38762,-0.88229 -1.08483,-1.71373 -1.96875,-2.09765 -0.3772,-0.16404 -0.78463,-0.2437 -1.21484,-0.21875 z" transform="scale(0.26458334)" />
    <path id="banner" d="m 62.390506,35.306373 c -0.33142,-0.0276 -0.733531,0.222099 -1.039212,0.569989 -0.465749,0.53014 -0.586676,1.157565 -0.917773,1.804024 -0.30421,0.593932 -0.663819,1.00507 -1.19166,1.38493 -0.150029,0.10882 -0.332245,0.223806 -0.471805,0.302308 -0.5285,0.296219 -1.050554,0.500914 -1.563214,0.609264 -0.30649,0.065 -0.563607,0.08294 -0.798917,0.05064 -0.436081,-0.0591 -0.592727,-0.291457 -0.592727,-0.291457 0,0 0.169822,0.218734 0.596344,0.259935 0.2325,0.0222 0.480997,-0.005 0.781865,-0.07803 0.504028,-0.122409 1.009189,-0.333573 1.533239,-0.626835 0.13208,-0.074 0.24243,-0.143152 0.327631,-0.202054 -0.16701,-0.220869 -0.361781,-0.449731 -0.568441,-0.679027 h -4.031795 c 0.0592,0.112186 0.120028,0.22464 0.196887,0.336929 0.45747,0.66843 1.12105,1.38648 1.902208,1.445389 0.236752,0.01781 0.573747,-0.05419 0.950847,-0.122989 0.377131,-0.0688 0.796208,-0.139027 1.205611,-0.09457 0.117911,0.01249 0.261318,0.01974 0.371038,0.02273 0.245377,0.007 0.457197,0.03274 0.640271,0.07234 0.172111,0.0372 0.281635,0.07906 0.281635,0.07906 0,0 -0.115564,-0.02045 -0.288353,-0.03565 -0.19517,-0.01659 -0.353349,-0.01987 -0.59118,-0.02687 0.157832,0.0491 0.337923,0.106564 0.528132,0.162264 0.208209,0.061 0.421508,0.117946 0.606166,0.152448 0.184661,0.0345 0.342313,0.04491 0.428913,0.0217 0.5821,-0.155971 0.912151,-0.371692 1.309481,-0.868682 0.31228,-0.39062 0.629222,-0.990383 0.913641,-1.543574 0.182682,-0.35532 0.348753,-0.691076 0.499711,-0.941544 0.118102,-0.19591 0.256267,-0.380849 0.405659,-0.536919 0.276738,-0.289049 0.609245,-0.481004 0.947229,-0.558106 0.295222,-0.0674 0.549826,-0.02315 0.719336,0.03876 0.168614,0.0615 0.251148,0.131268 0.251148,0.131258 0,1e-5 -0.08854,-0.0622 -0.257866,-0.111104 -0.171219,-0.0495 -0.418033,-0.07613 -0.697632,5.29e-4 -0.321982,0.0881 -0.631552,0.281641 -0.898652,0.559139 -0.04414,0.0459 -0.08672,0.09421 -0.127124,0.144179 0.376031,0.0573 0.651079,0.226621 0.857311,0.464571 0.06861,0.0792 0.12632,0.169881 0.182419,0.261483 h 2.007111 c -0.02241,-0.0479 -0.04531,-0.0961 -0.06511,-0.143661 -0.174009,-0.418171 -0.559401,-1.199497 -1.23145,-1.506884 -0.763442,-0.349211 -1.570009,-0.252291 -2.183329,-0.212392 -0.104068,0.007 -0.220228,0.01492 -0.315227,0.0072 -0.162841,-0.01381 -0.303633,-0.04842 -0.419095,-0.09612 -0.10899,-0.0451 -0.171566,-0.09198 -0.171566,-0.09198 0,0 0.07315,0.02691 0.184486,0.04961 0.105791,0.02151 0.207616,0.03201 0.331245,0.04341 -0.04766,-0.02379 -0.09484,-0.04876 -0.140044,-0.07286 -0.11925,-0.0632 -0.236289,-0.119409 -0.397391,-0.132807 z m 11.234457,0.04651 c -0.22384,0.01371 -0.517102,0.0984 -0.922941,0.324011 h -5.29e-4 c -0.201581,0.136801 -0.419515,0.270611 -0.597895,0.43098 -0.787249,0.71406 -1.205701,1.813661 -1.947169,2.612761 -0.166042,0.179001 -0.580477,0.728223 -1.042829,0.980302 0.335907,-0.27596 0.581655,-0.589605 0.766876,-0.943094 0.458939,-0.87788 0.649531,-2.017215 1.686719,-2.877344 0.04414,-0.0387 0.09696,-0.07571 0.143661,-0.107487 0.171979,-0.116771 0.359899,-0.151143 0.510048,-0.143145 0.14537,0.008 0.232542,0.05168 0.232542,0.05168 0,0 -0.09458,-0.02156 -0.23151,-0.0078 -0.134901,0.01331 -0.28548,0.0601 -0.43253,0.153479 0.123729,0.01421 0.230375,0.0735 0.313674,0.165881 0.133109,-0.111012 0.347977,-0.263589 0.482658,-0.348301 -0.07374,-0.0337 -0.169482,-0.06911 -0.334862,-0.109037 -0.40822,-0.0986 -0.797714,0.0021 -1.152385,0.218075 -0.354658,0.216321 -0.672378,0.549071 -0.926557,0.908473 -0.536411,0.758449 -1.199828,1.787835 -1.851568,2.511473 -0.109648,0.124812 -0.247367,0.262985 -0.375687,0.350885 -0.41406,0.283408 -0.903071,0.264649 -1.258837,0.17725 -0.354679,-0.0871 -0.555006,-0.21911 -0.555006,-0.21911 0,0 0.212106,0.111705 0.564306,0.175699 0.354708,0.0645 0.818692,0.0604 1.199412,-0.206187 0.08601,-0.0594 0.166195,-0.129024 0.240294,-0.207224 -0.275619,-0.214336 -0.54212,-0.508722 -0.779798,-0.834573 h -2.117699 c 0.236019,0.578549 0.489845,1.142352 1.04748,1.413349 0.647272,0.314592 1.292426,0.313015 1.951818,0.250116 0.07504,-0.007 0.142857,-0.01304 0.211357,-0.01394 0.195538,-0.004 0.401839,-0.04334 0.55449,-0.04134 0.153416,0.0021 0.249074,0.03669 0.249079,0.03669 0,0 -0.100211,-0.01701 -0.247012,5.29e-4 -0.05409,0.006 -0.117142,0.01881 -0.182936,0.03152 0.07263,0.01201 0.145841,0.02368 0.217041,0.03669 0.213259,0.0389 0.459774,0.149752 0.671795,0.100254 0.304157,-0.0709 0.533535,-0.276527 0.819587,-0.546738 0.286049,-0.270219 0.588626,-0.687549 0.950846,-1.339969 0.599379,-1.079651 1.089599,-2.129658 2.27893,-2.613279 0.04459,-0.0182 0.08852,-0.03226 0.133327,-0.04496 0.05375,-0.01529 0.107947,-0.02914 0.161747,-0.04134 0.284192,-0.065 0.544788,-0.05572 0.75551,-0.0021 0.199988,0.0509 0.313674,0.129191 0.313674,0.129191 0,0 -0.124693,-0.0584 -0.321942,-0.0863 -0.211871,-0.0299 -0.452144,-0.01664 -0.728123,0.04496 -0.0284,0.006 -0.05728,0.01368 -0.08578,0.02066 0.406701,0.15744 0.813345,0.577665 1.210262,1.069184 0.168262,0.20837 0.332613,0.429733 0.494544,0.649573 h 0.883152 c -0.0094,-0.01461 -0.01889,-0.02892 -0.02791,-0.04393 -0.552871,-0.864698 -1.055058,-1.560896 -1.557528,-1.805057 -0.01884,-0.009 -0.106096,-0.03683 -0.218075,-0.06563 -0.11199,-0.0288 -0.253495,-0.06148 -0.400492,-0.09198 -0.294042,-0.061 -0.61495,-0.111363 -0.747242,-0.103354 z m -23.054408,0.193786 v 5.29e-4 c -0.78708,0.0571 -1.205142,0.318942 -1.769401,0.817523 -1.96384,1.73531 -4.328932,2.771855 -5.447212,3.049426 -0.0275,0.007 -0.05715,0.0131 -0.08165,0.0181 -0.713729,0.153969 -1.294701,0.311467 -2.130102,0.362767 -0.120571,0.007 -0.235178,0.01521 -0.345199,0.02222 -0.359619,0.0235 -0.683832,0.03358 -1.001491,-0.03772 -0.59999,-0.136221 -0.902787,-0.501264 -0.902787,-0.501264 0,0 0.333182,0.334685 0.915191,0.438735 0.312081,0.0566 0.621533,0.03563 0.983403,0.01291 0.109826,-0.007 0.224894,-0.01585 0.345716,-0.02273 0.822586,-0.0505 1.39361,-0.204759 2.102712,-0.358119 -0.41802,-0.30565 -0.80818,-0.623287 -1.192691,-0.939477 h -7.992277 c -1.96e-4,0 -2.17e-4,0.0011 -5.29e-4,0.0011 -0.02281,0.0307 -0.05458,0.05581 -0.09457,0.05581 h -5.3e-4 L 32.8481,38.433885 c -0.131305,0.19613 -0.283493,0.354457 -0.438216,0.465087 -0.211598,0.151292 -0.380855,0.196371 -0.380855,0.196371 0,0 0.165344,-0.0577 0.365869,-0.216524 0.141255,-0.11185 0.276696,-0.264271 0.397391,-0.447 l -0.182417,-0.0052 c -0.119547,0.193506 -0.295979,0.364652 -0.491961,0.512112 -0.17685,0.13308 -0.355145,0.232164 -0.527617,0.317294 0.06471,0.003 0.130927,0.01458 0.197406,0.02687 1.822514,-0.60429 4.239493,-0.543214 5.412073,-0.310573 0.836531,0.165975 1.373386,0.455226 1.776635,0.714165 0.40323,0.258951 0.672745,0.482669 0.970484,0.532268 0.09804,0.0164 0.328035,0.0254 0.638204,0.02739 0.310181,0.0021 0.702937,-0.0019 1.137399,-0.0088 0.868918,-0.01331 1.904878,-0.03682 2.783808,-0.04082 0.345522,-0.0021 0.730094,0.0568 1.068152,0.105421 0.338071,0.0488 0.633669,0.08439 0.778248,0.04909 0.322178,-0.0787 0.73147,-0.11508 1.62729,-0.56379 0.880772,-0.44119 2.23346,-1.273376 4.396113,-2.947106 0.134893,-0.104399 0.302091,-0.200467 0.443902,-0.273368 0.71314,-0.36745 1.480027,-0.491005 2.166276,-0.360185 0.597361,0.114851 1.087086,0.393078 1.394746,0.595829 0.318191,0.20969 0.48731,0.359669 0.48731,0.359669 0,0 -0.175475,-0.143063 -0.499195,-0.341582 -0.312841,-0.19186 -0.806333,-0.453838 -1.393714,-0.552937 -0.673248,-0.114681 -1.417722,0.01942 -2.115632,0.377237 -0.07728,0.0397 -0.15498,0.0827 -0.233579,0.128675 0.657532,0.14568 1.027557,0.390787 1.276408,0.688846 h 3.639571 c -0.938101,-0.852678 -1.997326,-1.58382 -2.821016,-1.804541 -0.553681,-0.14795 -1.209242,0.0641 -2.667022,-0.0031 -0.70376,-0.0321 -1.081669,-0.137113 -1.483629,-0.108003 z M 36.12751,35.661388 v 5.29e-4 c -0.107244,5.29e-4 -0.216056,0.0038 -0.327113,0.0088 -1.392115,0.0774 -2.819802,0.198607 -4.125846,0.572058 0.13253,-0.01381 0.273145,-0.01762 0.417547,-0.0098 0.355494,0.02011 0.728168,0.110414 1.023194,0.304374 0.357156,0.234771 0.507704,0.530932 0.630968,0.804604 0.01056,0.0235 0.02069,0.04625 0.03101,0.06924 l 0.181901,-0.0052 h 5.29e-4 c 0.03997,0 0.07176,0.025 0.09457,0.05581 1.98e-4,0 2.06e-4,0.0011 5.29e-4,0.0011 h 6.815603 c -0.287788,-0.22295 -0.57766,-0.439342 -0.879021,-0.635131 -1.065289,-0.692161 -2.255221,-1.176049 -3.863848,-1.166339 z m 46.332054,0.145211 c -0.187301,0.007 -0.356909,-0.006 -0.542083,0.06511 -0.02304,0.009 -0.08656,0.0683 -0.159166,0.16795 -0.07267,0.0996 -0.160477,0.237752 -0.260966,0.403593 -0.200962,0.331639 -0.453623,0.774612 -0.746723,1.248502 -0.191648,0.309909 -0.494025,0.721334 -0.816488,1.079006 -0.280731,0.311348 -0.536956,0.533214 -0.782897,0.681095 -0.169511,0.101897 -0.604155,0.317961 -1.062985,0.236159 0.24288,0.02439 0.682197,-0.114085 0.787548,-0.187584 -0.06573,-0.01971 -0.13735,-0.0618 -0.192751,-0.0832 -0.46957,-0.181041 -0.821497,-0.456568 -1.089859,-0.681096 -0.121375,-0.10156 -0.226377,-0.212775 -0.326077,-0.326596 l -0.862479,5.29e-4 c 0.01439,0.01881 0.02909,0.03787 0.04289,0.05478 0.426159,0.524287 1.08223,1.097616 1.851049,1.356505 h 5.29e-4 5.29e-4 c 0.03392,0.0127 0.162213,0.02074 0.310576,0.01085 0.384535,-0.02561 0.819356,-0.0651 1.215946,-0.24443 0.468439,-0.390602 0.889619,-0.916572 1.234548,-1.371494 0.639299,-0.876419 0.979929,-1.505432 1.179256,-1.842781 0.05913,-0.100049 0.128278,-0.216246 0.218075,-0.275436 0.108503,-0.0716 0.242715,-0.07742 0.352435,-0.03772 0.151988,0.0568 0.25441,0.16973 0.314709,0.247529 0.0628,0.081 0.09198,0.134876 0.09198,0.134876 0,0 -0.03966,-0.04701 -0.112654,-0.116271 -0.0699,-0.0664 -0.181314,-0.160883 -0.316775,-0.196371 -0.09215,-0.02511 -0.200136,-0.01397 -0.281638,0.04082 -0.04608,0.0303 -0.08382,0.0717 -0.11162,0.116274 0.284782,0.34385 0.520277,0.708099 0.825788,1.175639 h 0.696082 c -0.279501,-0.48233 -0.598384,-1.009139 -0.920874,-1.391131 -0.105127,-0.124529 -0.17702,-0.192075 -0.250114,-0.227375 -0.07306,-0.0357 -0.153291,-0.04273 -0.285771,-0.03773 z m -46.573899,0.113689 c 0.195495,0.003 0.404294,0.01214 0.613399,0.03204 0.303731,0.029 0.610084,0.0723 0.917773,0.133327 0.789491,0.156429 1.462673,0.425055 1.998845,0.709517 0.51249,0.27192 0.818037,0.509529 0.818037,0.509529 0,0 -0.318485,-0.220112 -0.837674,-0.470773 -0.547068,-0.264149 -1.21236,-0.506545 -1.99626,-0.661974 -0.304559,-0.0604 -0.608446,-0.103074 -0.909505,-0.131776 -0.824701,-0.079 -1.658297,-0.07906 -1.658297,-0.07906 v -5.29e-4 c 0,0 0.467201,-0.04931 1.053682,-0.04031 z m 51.10954,0.04806 c -0.18584,-0.01 -0.411448,0.05129 -0.673859,0.198953 0.235871,-0.02371 0.438441,-0.01347 0.60978,0.04134 0.22057,0.0707 0.388392,0.216136 0.502811,0.441833 0.09577,0.188892 0.199679,0.478671 0.230479,0.76843 0.0394,-0.24271 0.03162,-0.467545 0.0031,-0.658874 -0.0302,-0.202771 -0.07596,-0.334348 -0.07596,-0.334346 0,0 0.06616,0.12254 0.118856,0.32556 0.0545,0.2097 0.08357,0.477885 0.02635,0.764296 -0.04599,0.170728 -0.08094,0.323697 -0.143145,0.478007 -0.118769,0.29301 -0.348835,0.595056 -0.617532,0.840774 -0.319003,0.291741 -0.690849,0.50505 -1.009759,0.510046 -0.729779,0.0114 -1.195131,-0.481971 -1.489832,-0.934308 h -0.613399 -5.29e-4 c 0.197281,0.270846 0.446818,0.576022 0.75551,0.823722 0.382449,0.30688 0.8402,0.518152 1.363739,0.451652 0.458658,-0.0582 0.847619,-0.323281 1.148768,-0.688332 0.301191,-0.365067 0.512961,-0.829874 0.613399,-1.278475 0.116372,-0.519848 0.04401,-1.118338 -0.21704,-1.459857 -0.130503,-0.170751 -0.304549,-0.278423 -0.531752,-0.290422 z m -7.898741,0.03721 c -0.03768,0.0021 -0.07232,0.01447 -0.111622,0.04806 -0.462479,0.394361 -0.888736,0.924475 -1.256255,1.409734 h 0.736907 c 0.346231,-0.45329 0.634436,-0.761722 0.968417,-0.981853 0.04601,-0.0303 0.08961,-0.0571 0.13901,-0.077 0.21917,-0.0879 0.439703,-0.07216 0.607713,-0.02946 0.16238,0.0412 0.252182,0.106452 0.252182,0.106452 0,0 -0.100962,-0.04546 -0.259934,-0.06356 -0.166846,-0.019 -0.365329,-0.0021 -0.569989,0.0739 -0.0011,0 -0.0013,0.0011 -0.0021,0.0011 0.313788,0.27283 0.630425,0.609073 0.950846,0.970483 h 0.234093 c 0.0733,-0.121851 0.144309,-0.240067 0.219109,-0.366387 -0.275248,-0.349139 -0.531574,-0.673219 -0.705384,-0.81907 -0.08501,-0.0714 -0.212553,-0.0953 -0.348816,-0.10232 -0.136221,-0.007 -0.277011,0.0011 -0.389641,-0.02119 -0.132946,-0.02641 -0.243446,-0.0899 -0.337447,-0.124024 -0.047,-0.01669 -0.08942,-0.02681 -0.127122,-0.02479 z m -5.958811,0.177252 c -0.158871,0.12033 -0.303344,0.25346 -0.435115,0.398941 0.224092,0.266989 0.430594,0.577599 0.628386,0.8816 h 0.712102 C 73.770587,37.04066 73.476516,36.596348 73.137653,36.18281 Z m -41.216087,0.36948 c -0.176795,0.003 -0.33632,0.02553 -0.471289,0.05374 0.230153,0.0775 0.45226,0.177959 0.642855,0.310057 0.221182,0.153281 0.397677,0.336399 0.516247,0.530201 l 0.556554,-0.01654 c 0.0016,-0.0114 0.0032,-0.02291 0.0041,-0.03411 0.01426,-0.169691 -0.0057,-0.284232 -0.0057,-0.284221 0,-1.1e-5 0.03282,0.111524 0.03101,0.285255 -9.8e-5,0.0104 -0.0013,0.02125 -0.0021,0.03204 l 0.280601,-0.0083 c -0.07044,-0.15243 -0.152037,-0.312169 -0.346747,-0.490411 -0.270288,-0.247438 -0.657897,-0.351435 -1.023194,-0.374137 -0.06264,-0.004 -0.123351,-0.0046 -0.182417,-0.0036 z m 52.831915,0.250113 c -0.05073,2.65e-4 -0.102632,0.004 -0.155546,0.01291 0.258868,0.10537 0.474088,0.287433 0.618051,0.521933 0.025,0.0407 0.04588,0.0836 0.06718,0.12609 h 0.427881 c -0.0303,-0.0602 -0.06078,-0.120467 -0.09819,-0.174667 -0.205513,-0.29817 -0.504249,-0.488704 -0.85938,-0.486275 z m -10.772984,1.607656 c 0.25169,0.335767 0.534881,0.670529 0.849042,0.938959 0.191389,0.121661 0.541378,0.23391 0.872816,0.30851 0.16624,0.0375 0.328462,0.06652 0.464055,0.08371 0.135581,0.0172 0.246407,0.02201 0.302305,0.01601 0.188913,-0.02209 0.323141,-0.0885 0.52555,-0.329695 0.0409,-0.0488 0.08816,-0.110381 0.134361,-0.168981 -0.165434,-0.13226 -0.315661,-0.270497 -0.453721,-0.412896 -0.083,0.10468 -0.165412,0.205222 -0.247012,0.293521 -0.14037,0.151942 -0.279657,0.273579 -0.424265,0.319879 0.0089,0.005 0.01736,0.008 0.02635,0.01241 0.200229,0.0911 0.398913,0.114837 0.561724,0.08837 0.155112,-0.02522 0.248563,-0.0894 0.248563,-0.0894 0,0 -0.07865,0.0817 -0.238744,0.130741 -0.16555,0.0506 -0.384162,0.03917 -0.608232,-0.05012 -0.349618,-0.139351 -0.68371,-0.441696 -0.91054,-0.671796 -0.135377,-0.138858 -0.26846,-0.304205 -0.39429,-0.46922 z m 3.402375,0 c 0.07794,0.0816 0.16189,0.163775 0.221691,0.218073 0.05688,-0.0769 0.107183,-0.146376 0.159682,-0.218073 z m 3.976502,0 c 0.04074,0.0494 0.08118,0.0976 0.122473,0.14831 0.485381,0.596421 0.920078,1.00484 1.374076,1.24592 0.45402,0.24089 0.928098,0.31718 1.500683,0.245978 0.397901,-0.0495 0.682659,-0.175051 0.89917,-0.359151 -0.09901,-0.0337 -0.193053,-0.0785 -0.285252,-0.127124 -0.138221,0.116951 -0.283692,0.193887 -0.416513,0.246496 0.12527,-0.007 0.233617,-0.01971 0.337447,-0.04031 0.12418,-0.02461 0.205671,-0.05323 0.205671,-0.05323 0,0 -0.07187,0.04818 -0.193786,0.09508 -0.127394,0.049 -0.287763,0.08747 -0.469222,0.09147 -0.141671,0.004 -0.30099,-0.0011 -0.434081,-0.02687 -0.496739,-0.0961 -0.967073,-0.443801 -1.395264,-0.866613 -0.193744,-0.191339 -0.373703,-0.395936 -0.545703,-0.599962 z m 4.112927,0 c -0.01553,0.277866 -0.06995,0.509318 -0.155546,0.693497 0.09518,0.0482 0.197239,0.0863 0.306959,0.112139 0.08934,-0.170932 0.161443,-0.362234 0.223242,-0.573093 0.02199,-0.0752 0.03282,-0.153747 0.04082,-0.232543 z" />
  </g>
</svg>