<?xml version="1.0" encoding="UTF-8" standalone="no"?>
<svg xmlns="http://www.w3.org/2000/svg" width="280" height="85" viewBox="0 0 74.083335 22.489583">
  <style>
    path { fill: #eee; }
    #banner { fill: #d3506a; }
  </style>
  <path id="wordmark" d="m 13.627592,0 c -0.677333,0 -1.249053,0.21824 -1.715659,0.65474 -0.240829,0.24083 -0.429358,0.571761 -0.564822,0.993221 -0.01505,0.13546 -0.03759,0.316306 -0.0677,0.542086 -0.01506,0.21073 -0.02223,0.451497 -0.02223,0.722437 v 2.144571 c 0,0.361251 0.03739,0.685021 0.112654,0.971001 0.09031,0.28599 0.218388,0.549302 0.383958,0.790132 0.06021,0.0753 0.172908,0.203336 0.338479,0.383956 0.180621,0.16557 0.4214,0.368953 0.722437,0.609782 0.602073,0.51177 0.956069,0.918006 1.061434,1.219046 0.240829,0.436502 0.36122,1.174205 0.36122,2.212787 v 1.873787 c 0,0.466609 -0.03791,0.79755 -0.113173,0.99322 -0.07526,0.301029 -0.240728,0.451651 -0.496609,0.451651 -0.225777,0 -0.383564,-0.120388 -0.473874,-0.361217 -0.03011,-0.105359 -0.05265,-0.233447 -0.0677,-0.383955 V 13.230201 9.708451 L 11.25719,8.353496 v 4.922179 c 0,0.301029 0.0072,0.564353 0.02223,0.790133 0.03011,0.225779 0.05265,0.421473 0.0677,0.587044 0.07526,0.195681 0.150567,0.368837 0.225825,0.519348 0.09031,0.150529 0.203531,0.285766 0.338997,0.406178 0.451557,0.451559 1.038127,0.677476 1.760617,0.677476 0.752594,0 1.332513,-0.225917 1.738913,-0.677476 0.391343,-0.42145 0.587045,-1.204228 0.587045,-2.348177 v -2.754355 c 0,-0.42145 -0.0154,-0.774928 -0.04548,-1.060916 -0.01505,-0.28598 -0.03763,-0.519596 -0.0677,-0.700217 C 15.825137,8.488934 15.734971,8.278402 15.614552,8.082711 15.494137,7.887041 15.343526,7.691336 15.1629,7.495666 14.952178,7.284937 14.771854,7.09693 14.621332,6.93136 14.470813,6.76579 14.342742,6.637714 14.237377,6.547404 L 13.876157,6.186186 C 13.75574,6.065776 13.619982,5.953075 13.469463,5.847705 13.21358,5.531615 13.086024,5.124851 13.086024,4.628141 V 3.002918 2.460832 c 0.01506,-0.16556 0.03759,-0.308495 0.0677,-0.428915 0.105363,-0.25588 0.263149,-0.383956 0.473874,-0.383956 0.270934,0 0.44409,0.180836 0.519348,0.542086 0.0301,0.12041 0.05264,0.271032 0.0677,0.451652 0.01506,0.16558 0.02273,0.38381 0.02273,0.654741 V 4.628141 L 15.998509,6.29884 V 3.025138 c 0,-1.14394 -0.195699,-1.911352 -0.587044,-2.302702 C 14.974966,0.240777 14.380188,0 13.627594,0 Z m 16.466696,0.225826 c 0.165573,0.16557 0.300815,0.338201 0.406175,0.518831 0.120412,0.16557 0.211095,0.338719 0.271301,0.519348 0.0602,0.16557 0.105278,0.37663 0.135392,0.63252 0.04513,0.25588 0.0677,0.541739 0.0677,0.857829 v 11.582239 c 0,0.240829 -0.0077,0.444211 -0.02273,0.609782 -0.01506,0.150509 -0.03763,0.270897 -0.0677,0.361218 -0.03013,0.105359 -0.0829,0.218061 -0.158128,0.338481 -0.0602,0.120409 -0.135509,0.248494 -0.225828,0.383955 h 2.641701 c -0.120412,-0.135461 -0.210577,-0.263546 -0.270785,-0.383955 -0.0602,-0.135472 -0.105278,-0.248171 -0.135393,-0.338481 -0.07526,-0.195681 -0.11317,-0.511763 -0.11317,-0.948262 V 3.273702 2.686658 c 0.01505,-0.16557 0.0304,-0.301334 0.04547,-0.406694 0.04513,-0.30104 0.165526,-0.526441 0.36122,-0.676961 -0.10536,-0.0151 -0.218586,-0.0376 -0.338998,-0.0677 -0.10537,-0.0451 -0.218067,-0.0979 -0.338481,-0.15813 -0.0602,-0.0301 -0.14319,-0.0829 -0.248563,-0.15813 -0.10536,-0.0753 -0.232918,-0.158264 -0.38344,-0.248564 L 30.884422,0.473869 C 30.598441,0.308303 30.335122,0.225826 30.094298,0.225826 Z m 10.577131,0 c -0.165566,0.39135 -0.331555,0.744817 -0.497128,1.060917 -0.165569,0.31608 -0.345887,0.594778 -0.541568,0.835608 -0.18062,0.21072 -0.384,0.413595 -0.609782,0.609265 -0.210725,0.18063 -0.459195,0.353778 -0.745176,0.519348 0.165566,0.12042 0.301329,0.256184 0.406694,0.406694 0.120412,0.13547 0.195728,0.285555 0.225827,0.451135 0.04514,0.12041 0.07485,0.301256 0.08992,0.542086 0.01505,0.22578 0.02273,0.49679 0.02273,0.81287 v 9.05371 c 0,1.008481 0.240779,1.51257 0.722437,1.51257 h 1.558044 c -0.150519,-0.165571 -0.27091,-0.323363 -0.361217,-0.473874 -0.07526,-0.150518 -0.128024,-0.286281 -0.158131,-0.406693 -0.03013,-0.0903 -0.04496,-0.233244 -0.04496,-0.428914 V 13.884941 4.831746 c 0,-0.43651 0.0374,-0.767958 0.112654,-0.993737 0.09031,-0.21073 0.24861,-0.406425 0.47439,-0.587045 h -0.338997 c -0.210728,0 -0.315744,-0.173158 -0.315744,-0.519348 z m 3.255097,0 c 0.316087,0.31609 0.47439,0.827867 0.47439,1.535307 v 12.21424 c 0,0.30104 -0.0077,0.557194 -0.02273,0.767914 v 0.451651 c -0.04513,0.13547 -0.105069,0.278395 -0.180351,0.428914 -0.0602,0.135461 -0.150879,0.270716 -0.271301,0.406177 h 3.047875 c 0.993429,0 1.626111,-0.240776 1.897044,-0.722436 0.19567,-0.301041 0.293005,-0.865587 0.293005,-1.693437 V 10.56628 c 0,-0.511759 -0.02257,-0.933373 -0.0677,-1.264523 C 49.066618,8.970618 49.029208,8.729842 48.984094,8.57932 48.833575,8.218082 48.487262,7.992152 47.945398,7.901844 48.291592,7.796482 48.577969,7.571073 48.803743,7.224882 48.984369,6.908782 49.074526,6.38165 49.074526,5.6441 V 3.567224 c 0,-1.17404 -0.105535,-1.964505 -0.316259,-2.370915 -0.195676,-0.42144 -0.624454,-0.714996 -1.286743,-0.880566 -0.120412,-0.0301 -0.308425,-0.0527 -0.564306,-0.0677 -0.240832,-0.0151 -0.527206,-0.02222 -0.858346,-0.02222 z m 2.325442,1.806091 h 0.451651 c 0.376293,0 0.564822,0.255625 0.564822,0.767395 v 3.386874 c 0,0.52681 -0.188529,0.790132 -0.564822,0.790132 H 46.251958 Z M 29.714465,2.957442 c -0.4064,0 -0.767561,0.225918 -1.083654,0.677478 L 28.337288,3.183268 h -1.625741 c 0.10536,0.16558 0.180666,0.308494 0.225828,0.428915 0.04513,0.10536 0.08253,0.203212 0.112654,0.293522 0.03013,0.12041 0.05269,0.263344 0.0677,0.428914 0.01506,0.15052 0.02273,0.353912 0.02273,0.609782 v 9.459888 c 0,0.21073 -0.0077,0.399254 -0.02273,0.564822 -0.01506,0.150522 -0.03763,0.285769 -0.0677,0.406178 -0.03013,0.0903 -0.07521,0.19585 -0.135393,0.316259 -0.0602,0.10537 -0.14319,0.218072 -0.248565,0.338481 h 2.664439 c -0.195673,-0.225779 -0.32375,-0.44401 -0.383956,-0.65474 -0.09031,-0.225769 -0.135392,-0.534175 -0.135392,-0.925526 V 5.711796 c 0,-0.67733 0.180842,-1.015959 0.542086,-1.015959 0.09031,0 0.188161,0.0379 0.293521,0.113172 0.105367,0.0753 0.218069,0.210507 0.338481,0.406177 V 3.025138 c -0.03013,-0.0151 -0.07521,-0.03038 -0.135392,-0.04548 -0.0602,-0.0151 -0.105286,-0.02222 -0.135393,-0.02222 z m 43.783374,0 c -0.406403,0 -0.768088,0.225918 -1.084173,0.677478 l -0.29352,-0.451652 h -1.625225 c 0.105368,0.16558 0.180671,0.308494 0.225825,0.428915 0.04513,0.10536 0.08253,0.203212 0.112657,0.293522 0.03013,0.12041 0.05269,0.263344 0.06769,0.428914 0.01506,0.15052 0.02273,0.353912 0.02273,0.609782 v 9.459888 c 0,0.21073 -0.0077,0.399254 -0.02273,0.564822 -0.01505,0.150522 -0.03762,0.285769 -0.06769,0.406178 -0.03013,0.0903 -0.07521,0.19585 -0.135393,0.316259 -0.0602,0.10537 -0.143198,0.218072 -0.248565,0.338481 h 2.664438 c -0.195672,-0.225779 -0.323752,-0.44401 -0.383958,-0.65474 -0.09031,-0.225769 -0.13539,-0.534175 -0.13539,-0.925526 V 5.711796 c 0,-0.67733 0.180325,-1.015959 0.541568,-1.015959 0.09031,0 0.188156,0.0379 0.293524,0.113172 0.105359,0.0753 0.21858,0.210507 0.338997,0.406177 V 3.025138 c -0.03007,-0.0151 -0.07515,-0.03038 -0.135393,-0.04548 -0.0602,-0.0151 -0.10528,-0.02222 -0.135392,-0.02222 z m -54.516051,0.02222 c -0.752597,0 -1.309452,0.240777 -1.670701,0.722437 -0.120412,0.16558 -0.210579,0.346415 -0.270783,0.542085 -0.0602,0.19567 -0.112963,0.398545 -0.15813,0.609265 -0.04513,0.165571 -0.07537,0.368952 -0.09043,0.609782 v 0.81287 6.660059 0.812869 c 0.01506,0.240842 0.0453,0.444214 0.09043,0.609783 0.04514,0.19567 0.0979,0.391363 0.15813,0.587044 0.0602,0.19567 0.150366,0.376515 0.270783,0.542086 0.346194,0.481661 0.903055,0.722437 1.670701,0.722437 0.842899,0 1.407451,-0.256151 1.693436,-0.767911 0.09031,-0.135472 0.157933,-0.278394 0.203087,-0.428916 0.0602,-0.165579 0.10528,-0.331049 0.135392,-0.49661 0.03013,-0.120419 0.05269,-0.271031 0.0677,-0.451651 0.01506,-0.19567 0.02273,-0.42159 0.02273,-0.677479 V 9.482107 l -1.670698,0.835091 v 3.6127 c 0,0.481661 -0.158303,0.722437 -0.47439,0.722437 -0.30104,0 -0.451652,-0.240776 -0.451652,-0.722437 V 5.237406 c 0,-0.46661 0.150612,-0.699699 0.451652,-0.699699 0.316087,0 0.47439,0.233089 0.47439,0.699699 V 7.99176 L 21.104133,7.246586 V 5.801713 c 0,-0.25589 -0.0077,-0.47412 -0.02273,-0.654741 -0.01505,-0.180619 -0.03763,-0.331231 -0.0677,-0.451651 C 20.998643,4.514701 20.961243,4.34923 20.901049,4.19871 20.840849,4.04819 20.765545,3.890407 20.675224,3.724837 20.374192,3.228127 19.80964,2.979663 18.981788,2.979662 Z m 4.958352,0 c -0.632171,0 -1.121415,0.195694 -1.467609,0.587044 -0.120423,0.15052 -0.233122,0.308303 -0.338482,0.473873 -0.09031,0.15052 -0.158451,0.331366 -0.203604,0.542086 -0.03013,0.13547 -0.0527,0.315789 -0.0677,0.541569 V 5.914883 8.6465 C 22.38956,7.999271 22.93925,7.547939 23.511224,7.29206 V 5.372798 c 0,-0.51176 0.157784,-0.767396 0.473871,-0.767396 0.120412,0 0.218263,0.0374 0.293524,0.112655 0.09031,0.0753 0.135392,0.195648 0.135392,0.361218 v 1.851567 c -0.03013,0.21072 -0.07521,0.428961 -0.135392,0.65474 -0.04513,0.210722 -0.142984,0.376192 -0.293524,0.496612 -0.07526,0.0903 -0.301183,0.278326 -0.677476,0.564306 -0.21073,0.165571 -0.383365,0.308493 -0.518832,0.428913 -0.12042,0.10536 -0.225954,0.203213 -0.316259,0.293524 -0.255889,0.270928 -0.42136,0.549616 -0.496612,0.835607 -0.03013,0.0903 -0.04547,0.240921 -0.04547,0.451651 v 0.790134 2.099614 1.061434 c 0.01508,0.285988 0.0453,0.50423 0.09043,0.654741 0.04513,0.165565 0.0979,0.308504 0.15813,0.428913 0.07526,0.10537 0.173101,0.195524 0.293524,0.270785 0.0602,0.0301 0.142676,0.05269 0.248047,0.0677 h 0.383955 3.409093 C 26.272798,15.788674 26.137554,15.54022 26.10745,15.284341 26.09239,15.209041 26.07749,15.088693 26.06249,14.923122 V 14.245645 5.73402 c 0,-0.28599 -0.0077,-0.526757 -0.02273,-0.722437 C 26.0247,4.800863 26.00213,4.627705 25.97206,4.492235 25.94193,4.311615 25.88916,4.153832 25.813929,4.018362 25.738669,3.867842 25.64082,3.732079 25.520408,3.611669 25.114008,3.190219 24.587376,2.979666 23.940142,2.979666 Z m 11.974981,0 c -0.767649,0 -1.324507,0.240777 -1.670701,0.722437 -0.120412,0.18062 -0.210577,0.368626 -0.270782,0.564306 -0.0602,0.19567 -0.112964,0.391374 -0.158131,0.587044 -0.04513,0.165571 -0.07537,0.368952 -0.09043,0.609782 v 0.81287 6.660059 c 0,0.301041 0.0077,0.572053 0.02273,0.812869 0.03013,0.240842 0.0527,0.444214 0.0677,0.609783 0.01505,0.19567 0.06015,0.391363 0.135393,0.587044 0.07526,0.19567 0.173106,0.376515 0.29352,0.542086 0.346192,0.481661 0.903055,0.722437 1.670701,0.722437 0.842907,0 1.407457,-0.256151 1.693437,-0.767911 0.12042,-0.18062 0.210576,-0.429096 0.270782,-0.745175 0.07526,-0.331139 0.113173,-0.722529 0.113173,-1.174088 V 9.549803 c -0.752591,0.0753 -1.294593,0.330896 -1.62574,0.767395 v 3.6127 c 0,0.481661 -0.158303,0.722437 -0.47439,0.722437 -0.30104,0 -0.451652,-0.240776 -0.451652,-0.722437 V 9.549803 c 0.391354,-0.361249 0.798108,-0.632251 1.219563,-0.812869 0.436499,-0.19568 0.88066,-0.316068 1.332219,-0.361219 V 5.689057 c 0,-0.88806 -0.128069,-1.542771 -0.383955,-1.964221 -0.301032,-0.49671 -0.865585,-0.745174 -1.693437,-0.745174 z m 16.109611,0 c -0.632182,0 -1.121418,0.195694 -1.467612,0.587044 -0.120412,0.15052 -0.233122,0.308303 -0.338481,0.473873 -0.09031,0.15052 -0.158454,0.331366 -0.203605,0.542086 -0.03013,0.13547 -0.05269,0.315789 -0.0677,0.541569 V 5.914883 8.6465 c 0.526819,-0.647229 1.07651,-1.098561 1.648478,-1.35444 V 5.372798 c 0,-0.51176 0.157779,-0.767396 0.473874,-0.767396 0.120412,0 0.21826,0.0374 0.293521,0.112655 0.09031,0.0753 0.135392,0.195648 0.135392,0.361218 v 1.851567 c -0.03006,0.21072 -0.07515,0.428961 -0.135392,0.65474 -0.04514,0.210722 -0.142981,0.376192 -0.293521,0.496612 -0.07526,0.0903 -0.300665,0.278326 -0.676963,0.564306 -0.210727,0.165571 -0.383881,0.308493 -0.519348,0.428913 -0.120414,0.10536 -0.225943,0.203213 -0.316259,0.293524 -0.255878,0.270928 -0.421349,0.549616 -0.49661,0.835607 -0.03007,0.0903 -0.04496,0.240921 -0.04496,0.451651 v 0.790134 2.099614 1.061434 c 0.01506,0.285988 0.04478,0.50423 0.08992,0.654741 0.04514,0.165565 0.0979,0.308504 0.158129,0.428913 0.07526,0.10537 0.173111,0.195524 0.293523,0.270785 0.0602,0.0301 0.14319,0.05269 0.248563,0.0677 h 0.383439 3.409612 c -0.240827,-0.240842 -0.37659,-0.489296 -0.406694,-0.745175 -0.01508,-0.0753 -0.02989,-0.195648 -0.04496,-0.361219 V 14.245645 5.73402 c 0,-0.28599 -0.0077,-0.526757 -0.02273,-0.722437 -0.01508,-0.21072 -0.03763,-0.383878 -0.0677,-0.519348 C 54.026518,4.311615 53.973748,4.153832 53.89852,4.018362 53.82326,3.867842 53.725411,3.732079 53.604996,3.611669 53.198578,3.190219 52.671948,2.979666 52.024722,2.979666 Z m 15.723071,0 c -0.767641,0 -1.324507,0.240777 -1.670701,0.722437 -0.120417,0.18062 -0.210577,0.368626 -0.270783,0.564306 -0.0602,0.19567 -0.112969,0.391374 -0.15813,0.587044 -0.04513,0.165571 -0.07538,0.368952 -0.09043,0.609782 v 0.81287 6.660059 c 0,0.301041 0.0077,0.572053 0.02273,0.812869 0.03013,0.240842 0.0527,0.444214 0.0677,0.609783 0.01508,0.19567 0.06015,0.391363 0.135393,0.587044 0.07526,0.19567 0.173103,0.376515 0.29352,0.542086 0.346194,0.481661 0.90306,0.722437 1.670701,0.722437 0.842907,0 1.407451,-0.256151 1.693437,-0.767911 0.120414,-0.18062 0.210576,-0.429096 0.270782,-0.745175 0.07526,-0.331139 0.113173,-0.722529 0.113173,-1.174088 V 9.549803 c -0.752591,0.0753 -1.294601,0.330896 -1.62574,0.767395 v 3.6127 c 0,0.481661 -0.15779,0.722437 -0.473874,0.722437 -0.30104,0 -0.451652,-0.240776 -0.451652,-0.722437 V 9.549803 c 0.391348,-0.361249 0.797595,-0.632251 1.219047,-0.812869 0.436509,-0.19568 0.880665,-0.316068 1.332219,-0.361219 V 5.689057 c 0,-0.88806 -0.128074,-1.542771 -0.383955,-1.964221 C 69.140199,3.228126 68.575655,2.979662 67.747803,2.979662 Z M 54.61527,3.182751 c 0.165574,0.21073 0.29364,0.398737 0.383955,0.564307 0.09031,0.15051 0.15076,0.301132 0.18087,0.451652 0.04513,0.22578 0.0677,0.715021 0.0677,1.467611 v 8.669756 c 0,0.210727 -0.0077,0.399251 -0.02273,0.564822 0,0.150521 -0.0149,0.285758 -0.04496,0.406178 -0.01505,0.0903 -0.09806,0.248607 -0.248565,0.47439 l -0.158128,0.248046 h 2.348177 l -0.09043,-0.270785 c -0.0602,-0.150521 -0.09759,-0.323678 -0.112654,-0.519348 -0.01506,-0.19567 -0.02273,-0.436456 -0.02273,-0.722437 V 4.537707 c 0.18062,0 0.315865,0.007 0.406178,0.02222 0.105367,0 0.173506,0.008 0.203605,0.02274 0.240834,0.0903 0.361217,0.353633 0.361217,0.790133 v 8.692494 c 0,0.285988 -0.0077,0.519604 -0.02273,0.700214 -0.01508,0.180631 -0.02989,0.308179 -0.04496,0.38344 -0.07526,0.39135 -0.188484,0.684897 -0.338997,0.880567 h 2.348177 c 0,-0.0753 -0.02257,-0.128021 -0.0677,-0.15813 -0.03013,-0.0451 -0.07522,-0.0902 -0.13539,-0.135393 -0.04513,-0.0451 -0.09021,-0.112757 -0.135393,-0.203089 -0.03013,-0.0903 -0.04496,-0.233233 -0.04496,-0.428913 V 6.772715 5.892149 c 0,-0.25589 -0.01535,-0.451575 -0.04547,-0.587045 -0.04513,-0.57197 -0.142981,-1.00844 -0.293521,-1.30948 C 58.82995,3.453754 58.273089,3.182753 57.41513,3.182753 Z m 5.336109,0 c 0.165573,0.21073 0.293126,0.398737 0.383439,0.564307 0.09031,0.15051 0.15076,0.301132 0.180867,0.451652 0.04513,0.22578 0.0677,0.715021 0.0677,1.467611 v 8.669756 c 0,0.210727 -0.0077,0.399251 -0.02273,0.564822 0,0.150521 -0.01482,0.285758 -0.04496,0.406178 -0.01508,0.0903 -0.09806,0.248607 -0.248563,0.47439 l -0.15813,0.248046 h 2.348177 l -0.09043,-0.270785 c -0.0602,-0.150521 -0.09759,-0.323678 -0.112657,-0.519348 -0.01505,-0.19567 -0.02273,-0.436456 -0.02273,-0.722437 V 4.537707 c 0.180621,0 0.316381,0.007 0.406694,0.02222 0.105365,0 0.172987,0.008 0.203086,0.02274 0.240834,0.0903 0.36122,0.353633 0.36122,0.790133 v 8.692494 c 0,0.285988 -0.0077,0.519604 -0.02273,0.700214 -0.01505,0.180631 -0.02989,0.308179 -0.04496,0.38344 -0.07526,0.39135 -0.188484,0.684897 -0.338997,0.880567 h 2.348693 c 0,-0.0753 -0.02257,-0.128021 -0.0677,-0.15813 -0.03013,-0.0451 -0.07574,-0.0902 -0.135908,-0.135393 -0.04514,-0.0451 -0.09021,-0.112757 -0.135393,-0.203089 -0.03013,-0.0903 -0.04496,-0.233233 -0.04496,-0.428913 V 6.772715 5.892149 c 0,-0.25589 -0.01535,-0.451575 -0.04547,-0.587045 -0.04513,-0.57197 -0.142983,-1.00844 -0.293523,-1.30948 C 64.165525,3.453754 63.608667,3.182753 62.750716,3.182753 Z M 35.892383,4.537707 c 0.316087,0 0.47439,0.233089 0.47439,0.699699 v 2.00918 L 35.440731,7.676017 V 5.237406 c 0,-0.46661 0.150611,-0.699699 0.451652,-0.699699 z m 31.833197,0 c 0.316085,0 0.473874,0.233089 0.473874,0.699699 v 2.00918 L 67.273929,7.676017 V 5.237406 c 0,-0.46661 0.150611,-0.699699 0.451651,-0.699699 z M 0.47800683,8.263061 v 1.286743 c 0.09784,-0.19567 0.21105838,-0.331433 0.33899739,-0.406693 0.0526801,-0.0301 0.11261672,-0.05269 0.18035084,-0.0677 C 1.065085,9.052821 1.1403952,9.041821 1.2231812,9.041821 h 0.3384804 v 6.220294 c 0,0.127939 -0.0033,0.240638 -0.010853,0.338478 0,0.0903 -0.00771,0.15793 -0.022738,0.203089 -0.03763,0.10536 -0.1206265,0.225748 -0.2485636,0.361217 H 2.7248964 C 2.6195335,16.036954 2.5403826,15.901717 2.4877014,15.758728 2.4651007,15.660928 2.453595,15.469041 2.453595,15.183053 V 9.041825 h 0.3389974 c 0.323615,0 0.5715614,0.16932 0.7446573,0.507979 V 8.29665 c 0.07363,0.0715 0.1358575,0.142907 0.1813843,0.214458 0.05268,0.0753 0.094431,0.154416 0.1245402,0.237194 0.06773,0.19568 0.1012859,0.444135 0.1012859,0.745175 v 5.847704 c 0,0.11289 -0.00379,0.210744 -0.011369,0.293524 -0.0075,0.0753 -0.01469,0.131352 -0.02222,0.168981 -0.03763,0.11289 -0.1057661,0.233268 -0.2036051,0.361217 h 1.2081949 c -0.0301,-0.0527 -0.060334,-0.108751 -0.090434,-0.168981 -0.022569,-0.0602 -0.03359,-0.131667 -0.03359,-0.214455 v -5.24981 c 0.1806239,0 0.2856389,0.0158 0.3157429,0.04599 0.03763,0.0376 0.060166,0.09698 0.067696,0.179832 0.0075,0.0828 0.011369,0.196524 0.011369,0.339516 v 4.312398 c 3.1e-6,0.353719 -0.037391,0.605497 -0.1126546,0.756026 0.1354659,0.0828 0.2256306,0.154257 0.2707846,0.214455 0.03763,0.0376 0.07886,0.08599 0.1240235,0.146246 0.04515,0.0602 0.094079,0.139862 0.1467609,0.237712 0.11289,0.248349 0.2332799,0.425347 0.3612192,0.530718 0.1128898,0.112879 0.2563363,0.192042 0.429432,0.237193 -0.07526,-0.120406 -0.1357144,-0.23799 -0.1808682,-0.350879 -0.045148,-0.10536 -0.086389,-0.218062 -0.1240234,-0.338482 -0.015055,-0.112879 -0.026575,-0.240448 -0.034105,-0.383439 -0.00751,-0.13547 -0.011377,-0.285565 -0.011377,-0.451136 v -4.752681 c 0,-0.248359 -0.011007,-0.46659 -0.033591,-0.654741 C 5.9992769,10.404715 5.9575099,10.250257 5.8973065,10.137364 5.8521575,10.039564 5.7883744,9.959863 5.7055866,9.899655 5.6303266,9.831955 5.5473358,9.798886 5.457023,9.798886 c -0.03763,0 -0.1090923,0.0182 -0.2144573,0.05581 -0.09784,0.0301 -0.1918433,0.04547 -0.2821532,0.04547 -0.1128901,0 -0.168982,-0.0528 -0.168982,-0.158131 0,-0.127939 0.0033,-0.229113 0.010853,-0.304374 0.0075,-0.0753 0.015219,-0.135708 0.022738,-0.180867 0.01506,-0.0828 0.030415,-0.150399 0.045475,-0.203089 0.01506,-0.0602 0.05245,-0.109119 0.1126545,-0.146761 C 4.8100521,8.869344 4.5879749,8.763815 4.3170419,8.590685 L 3.9108655,8.342643 c -0.06021,-0.0376 -0.1129761,-0.0602 -0.1581301,-0.0677 -0.04515,-0.008 -0.094079,-0.01188 -0.1467609,-0.01188 h -0.06873 z M 46.251958,8.781893 h 0.451651 c 0.376293,0 0.564822,0.241292 0.564822,0.722953 v 4.108794 c 0,0.541869 -0.188529,0.812869 -0.564822,0.812869 H 46.251958 Z M 7.5726636,9.640239 c -0.3838231,0 -0.6625114,0.120377 -0.8356071,0.361217 -0.060211,0.0903 -0.1052857,0.184314 -0.1353926,0.282154 -0.030099,0.0978 -0.056494,0.195691 -0.079065,0.293521 -0.022595,0.0828 -0.037428,0.184481 -0.044958,0.304893 v 0.406175 3.33003 c 0,0.150521 0.00378,0.286284 0.011377,0.406693 0.015055,0.12042 0.026061,0.222113 0.033589,0.30489 0.00749,0.0978 0.030067,0.195683 0.067696,0.293524 0.037632,0.0978 0.086553,0.188005 0.1467617,0.270785 0.1730957,0.240839 0.451784,0.361217 0.8356071,0.361217 0.4214521,0 0.7034662,-0.128077 0.8464603,-0.383955 0.060211,-0.0903 0.1052883,-0.214548 0.1353926,-0.372587 0.037629,-0.165571 0.056843,-0.361264 0.056843,-0.587044 v -1.986444 c -0.3762983,0.0376 -0.6472978,0.16515 -0.8128687,0.38344 v 1.806609 c 0,0.240818 -0.079153,0.361217 -0.2371963,0.361217 -0.1505189,0 -0.2258246,-0.120399 -0.2258246,-0.361217 v -2.190049 c 0.1956753,-0.180618 0.3990552,-0.316383 0.6097826,-0.406694 0.2182521,-0.0978 0.4403275,-0.157768 0.666107,-0.18035 v -1.343586 c 0,-0.444029 -0.064299,-0.771123 -0.1922356,-0.981853 C 8.268613,9.764477 7.9865962,9.640239 7.5726715,9.640239 Z M 24.414014,9.843328 v 4.538223 c -0.255881,0 -0.458748,-0.01527 -0.609266,-0.04547 -0.150522,-0.0451 -0.241197,-0.120446 -0.271301,-0.225827 -0.01506,-0.0602 -0.02222,-0.142666 -0.02222,-0.248047 v -0.383955 -2.506308 c 0,-0.255879 0.12039,-0.481291 0.361217,-0.676961 0.03013,-0.0301 0.09007,-0.0752 0.18035,-0.135392 0.09031,-0.0753 0.210701,-0.180801 0.36122,-0.316259 z m 28.084589,0 v 4.538223 c -0.255878,0 -0.458745,-0.01527 -0.609264,-0.04547 -0.150513,-0.0451 -0.241194,-0.120446 -0.271301,-0.225827 -0.01508,-0.0602 -0.02222,-0.142666 -0.02222,-0.248047 v -0.383955 -2.506308 c 0,-0.255879 0.120386,-0.481291 0.36122,-0.676961 0.03013,-0.0301 0.09007,-0.0752 0.180351,-0.135392 0.09031,-0.0753 0.210706,-0.180801 0.361217,-0.316259 z M 7.5612944,10.419003 c 0.1580436,0 0.2371963,0.116549 0.2371963,0.349848 v 1.004591 L 7.3354699,11.9879 v -1.219049 c 0,-0.233299 0.075308,-0.349848 0.2258245,-0.349848 z m 2.7502196,5.950024 c -0.102611,0.0817 -0.206619,0.209513 -0.284737,0.347781 -0.079928,0.141452 -0.1287567,0.286396 -0.1343579,0.382405 0.044439,0.0294 0.096628,0.06581 0.1436609,0.115755 0.04585,0.0486 0.08365,0.110919 0.0956,0.185521 0.129201,0.01849 0.248981,0.0021 0.368969,-0.02479 0.03852,-0.133581 0.147325,-0.219853 0.230476,-0.275953 -0.0055,-0.096 -0.05486,-0.241324 -0.134874,-0.382923 -0.07812,-0.138261 -0.182102,-0.266081 -0.284739,-0.347782 z m 0.744659,0.942578 v 5.29e-4 c 7.94e-4,-2.3e-4 0.0019,-2.17e-4 0.0026,-5.29e-4 -7.94e-4,9e-5 -0.0019,-7.9e-5 -0.0026,0 z m 0.203605,0.07545 v 5.29e-4 c -0.207272,0.006 -0.39918,0.03713 -0.554487,0.08423 2.64e-4,0.0114 -7.94e-4,0.02291 -0.0036,0.0341 0.528915,-0.116819 1.031462,-0.0052 1.031462,-0.0052 0,0 -0.13062,-0.02114 -0.327628,-0.02326 -0.208836,-0.0021 -0.447379,0.01953 -0.714169,0.08113 -0.0056,0.0011 -0.01093,0.0031 -0.01654,0.0041 v 5.29e-4 c 0.01527,0.015 0.02114,0.03546 0.02635,0.05116 0.196586,-0.0562 0.479047,-0.09547 0.792718,-0.07597 0.377883,0.0235 0.785043,0.129675 1.076936,0.396875 0.270947,0.248071 0.340485,0.472763 0.433565,0.660942 0.06414,0.12967 0.190172,0.300403 0.335897,0.370004 -0.117885,-0.15468 -0.208997,-0.340373 -0.289388,-0.518832 -0.122066,-0.270991 -0.260893,-0.54433 -0.599446,-0.766879 -0.277058,-0.182131 -0.635804,-0.27102 -0.979786,-0.290422 -0.07173,-0.004 -0.142783,-0.0041 -0.211873,-0.0031 z m -0.663525,0.05529 c -0.163594,0.041 -0.335373,0.07697 -0.530717,0.03617 -0.0592,-0.0021 -0.078883,0.07428 -0.04134,0.09198 0.0396,-0.01461 0.08051,-0.01823 0.115236,-0.02222 0.09899,-0.01201 0.172601,-0.0047 0.172601,-0.0047 0,0 -0.07239,0.01532 -0.165883,0.04083 -0.04212,0.01191 -0.09145,0.02262 -0.129191,0.04392 -0.0085,0.005 -0.01217,0.01371 -0.01241,0.0217 2.4e-5,0.0011 -2.3e-5,0.0011 0,0.0021 5.3e-4,0.015 0.01259,0.02915 0.03152,0.02326 l 0.550354,-0.148312 c 0.04558,-0.0127 0.04685,-0.08363 0.0098,-0.08423 z m 0.0062,0.171567 -0.211354,0.05684 c 0.01976,0.005 0.03825,0.01003 0.05529,0.01603 0.03854,0.01389 0.109377,0.03579 0.126609,0.03979 0.05052,0.004 0.09027,-0.106656 0.02945,-0.112654 z m 0.230995,0.06046 v 5.3e-4 c 2.59e-4,-6.1e-5 7.94e-4,5.8e-5 0.0011,0 -2.64e-4,-1.22e-4 -7.94e-4,-2.28e-4 -0.0011,-5.3e-4 z m -0.671277,0.05633 v 5.29e-4 l -0.02479,0.0067 v 0.919324 l -2.0355345,0.06046 -0.00569,-0.0011 C 7.7571522,18.637075 7.3115119,18.383657 7.1055099,18.104307 L 5.1673124e-4,18.936297 7.3886961,19.005028 0,19.073756 7.1055099,19.904199 c 0.206002,-0.27935 0.6516423,-0.532768 0.9906371,-0.612368 l 0.00569,-0.0011 2.035535,0.06046 v 0.98857 l 0.02479,0.0072 c 0.103341,0.005 0.188915,-0.01614 0.257865,-0.03824 0.02421,-0.008 0.04569,-0.01574 0.06615,-0.02273 v -0.923976 l 2.857707,0.08475 c 0.0021,0 0.01064,-0.0019 0.02429,-0.02016 0.01368,-0.0185 0.029,-0.05047 0.04186,-0.09147 0.01715,-0.0548 0.02729,-0.13004 0.03359,-0.210841 -0.305829,-0.14836 -0.430689,-0.314814 -0.5178,-0.490926 -0.0096,-0.01939 -0.01881,-0.03879 -0.0279,-0.05839 l -2.411741,0.07183 v -0.855244 c -0.02045,-0.007 -0.04193,-0.01474 -0.06615,-0.02273 -0.06895,-0.02209 -0.154524,-0.04324 -0.257865,-0.03824 z m 3.181718,0.83199 v 5.29e-4 l -0.142627,0.0036 c 0.06903,0.150029 0.141264,0.288779 0.249082,0.405659 -0.0027,-0.116689 -0.01691,-0.223054 -0.04031,-0.297656 -0.01283,-0.041 -0.02817,-0.07297 -0.04186,-0.09147 -0.01365,-0.01849 -0.02209,-0.02066 -0.02429,-0.02066 z m 0.139009,0.05736 c 0.0036,0.01 0.0075,0.01812 0.01085,0.02842 0.02947,0.0941 0.04651,0.219054 0.04651,0.357084 0,0.01749 -0.0019,0.03331 -0.0031,0.04961 0.01754,0.0146 0.0355,0.02878 0.05478,0.04237 0.549617,0.18627 1.256179,0.102042 1.871721,-0.342098 l 0.03049,-0.0217 0.307991,0.309542 -0.04754,0.02894 c -0.26806,0.162639 -0.529032,0.264342 -0.778764,0.318841 H 25.16798 c 0.420819,-0.222448 0.860155,-0.48183 1.302244,-0.771012 z m 17.470768,0 c -0.10664,0.079 -0.193736,0.139142 -0.296106,0.213943 -0.204681,0.149997 -0.400426,0.291488 -0.588076,0.424778 -0.05783,0.0409 -0.127355,0.0931 -0.183451,0.132291 h 9.406659 c 0.164934,-0.201049 0.31305,-0.4201 0.447001,-0.681611 0.01521,-0.0298 0.0259,-0.0596 0.04031,-0.0894 z m 11.680425,0 c -0.08523,0.161542 -0.168701,0.318718 -0.262001,0.50023 -0.04583,0.0892 -0.09368,0.180083 -0.141076,0.270782 h 6.043041 c 0.192972,-0.258088 0.371542,-0.50655 0.555522,-0.771012 z m 7.25692,0 c -0.113117,0.2607 -0.215595,0.520203 -0.322976,0.771012 h 0.175183 c 0.185909,-0.245448 0.357251,-0.507031 0.5271,-0.771012 z m 1.517222,0 c -0.14568,0.248312 -0.287274,0.506442 -0.433568,0.771012 h 8.599477 c 0.201822,-0.258948 0.369348,-0.506132 0.543118,-0.771012 -0.121991,0 -0.184692,0.003 -0.221691,0 z m 9.600446,0 c -0.18755,0.298271 -0.368255,0.522674 -0.535885,0.771012 h 1.009759 5.21105 c 0.120394,-0.172659 0.212164,-0.350149 0.254765,-0.51418 0.0208,-0.0795 0.02474,-0.167331 0.02273,-0.256832 z m 6.238896,0 c -0.0088,0.0629 -0.01937,0.125252 -0.03307,0.186553 -0.04374,0.19544 -0.111922,0.392459 -0.194821,0.584459 h 2.436545 2.367296 1.764234 c 0.0398,0 0.08411,-0.0323 0.120407,-0.101801 0.0363,-0.0695 0.06046,-0.170894 0.06046,-0.283705 0,-0.112799 -0.02416,-0.214204 -0.06046,-0.283702 -0.0364,-0.0695 -0.08071,-0.101804 -0.120407,-0.101804 h -1.764234 -2.367296 z m -51.765832,0.225309 c -0.481706,0.336291 -1.01477,0.465664 -1.494483,0.421164 0.472403,0.146 1.044691,0.115697 1.66915,-0.245462 z m -1.953368,0.318844 c -0.0072,0.0736 -0.0173,0.143248 -0.03462,0.198438 -0.0032,0.01029 -0.0074,0.01842 -0.01085,0.02842 v 5.29e-4 h 0.619086 c -0.14409,-0.0325 -0.281313,-0.0789 -0.408245,-0.138493 -0.05595,-0.0263 -0.106063,-0.05305 -0.150894,-0.08165 -0.0052,-0.003 -0.0094,-0.0052 -0.01447,-0.0072 z M 10.573,20.352764 v 5.29e-4 c -0.01722,0.004 -0.08806,0.0259 -0.126609,0.03979 -0.01704,0.006 -0.03552,0.01154 -0.05529,0.01654 l 0.211354,0.05633 c 0.06082,-0.006 0.02106,-0.117171 -0.02945,-0.11317 z m -0.536919,0.05219 c -0.01863,-0.003 -0.03036,0.01029 -0.03101,0.02429 2.4e-5,0.0011 0,7.94e-4 0,0.0021 9.8e-5,0.008 0.0037,0.01669 0.01188,0.0217 0.03774,0.0213 0.08708,0.03202 0.129191,0.04392 0.0935,0.02551 0.165883,0.04031 0.165883,0.04031 0,0 -0.07361,0.0068 -0.172601,-0.0052 -0.03474,-0.004 -0.07564,-0.008 -0.115236,-0.02273 -0.037542,0.01781 -0.01786,0.0945 0.04134,0.0925 0.195344,-0.0409 0.367122,-0.0051 0.530717,0.03565 0.03697,-7.94e-4 0.0357,-0.07215 -0.0098,-0.08475 z m 0.873331,5.29e-4 v 5.29e-4 c -0.07406,-0.005 -0.138559,-0.0034 -0.201022,0.0036 0.0016,0.009 0.0029,0.03111 -0.0067,0.05581 0.05896,-0.01 0.105014,-0.01323 0.161232,-0.01035 0.04639,0.003 0.102815,0.005 0.212908,0.02223 0.06323,0.01011 0.127251,0.02384 0.179832,0.04134 0.151717,0.0506 0.242879,0.103355 0.242879,0.103355 0,0 -0.09715,-0.04117 -0.250113,-0.07907 -0.07298,-0.0181 -0.15658,-0.03079 -0.243911,-0.03979 -0.08778,-0.009 -0.121629,-0.0062 -0.16795,-0.0062 -0.05803,0.003 -0.106175,0.003 -0.151929,0.02429 0.01982,0.009 0.02119,0.04673 0.0186,0.06563 0.02313,-0.004 0.03161,-0.0068 0.0987,-0.0098 0.232476,-0.0118 0.444685,0.009 0.669727,0.08733 0.143552,0.0502 0.283088,0.159057 0.42478,0.281638 -0.02236,-0.0614 -0.0777,-0.144153 -0.119372,-0.183451 -0.204144,-0.19268 -0.409421,-0.277143 -0.609266,-0.318844 -0.100973,-0.0213 -0.184317,-0.03334 -0.258382,-0.03824 z m -0.58911,0.269751 c -0.06225,-0.005 -0.125749,-0.0053 -0.19172,0.0047 -0.01402,0.0686 -0.04946,0.126899 -0.0925,0.172598 -0.047019,0.0498 -0.099219,0.08639 -0.1436609,0.115755 0.00561,0.096 0.054427,0.240956 0.1343579,0.382405 0.07812,0.13825 0.182126,0.266084 0.284737,0.347784 0.102634,-0.0817 0.206618,-0.209534 0.284739,-0.347784 0.08003,-0.1416 0.129376,-0.286922 0.134874,-0.382921 -0.08027,-0.0542 -0.18452,-0.136715 -0.226343,-0.262517 -0.06119,-0.01371 -0.12223,-0.02458 -0.184483,-0.02997 z m 1.895491,0.66766 c 0.315703,0.671658 1.207984,0.878324 1.781286,0.399976 -0.376516,0.134228 -0.694241,0.192437 -0.978752,0.118338 -0.266597,-0.0694 -0.522447,-0.260835 -0.802534,-0.518314 z m 2.521293,0.109037 v 5.3e-4 c -0.113826,0.007 -0.233677,0.0415 -0.357602,0.110588 0.272679,-0.0534 0.497787,-0.03251 0.655775,0.0739 0.18638,0.12551 0.301929,0.321313 0.401526,0.501264 l 0.142626,-0.07338 c -0.102558,-0.23344 -0.287028,-0.453425 -0.520898,-0.555004 -0.0998,-0.0434 -0.2076,-0.06448 -0.321427,-0.05788 z" />
  <path id="banner" d="m 41.77471,16.375229 c -0.33142,-0.0276 -0.733531,0.222099 -1.039212,0.569989 -0.465749,0.53014 -0.586676,1.157565 -0.917773,1.804024 -0.30421,0.593932 -0.663819,1.00507 -1.19166,1.38493 -0.150029,0.10882 -0.332245,0.223806 -0.471805,0.302308 -0.5285,0.296219 -1.050554,0.500914 -1.563214,0.609264 -0.30649,0.065 -0.563607,0.08294 -0.798917,0.05064 -0.436081,-0.0591 -0.592727,-0.291457 -0.592727,-0.291457 0,0 0.169822,0.218734 0.596344,0.259935 0.2325,0.0222 0.480997,-0.005 0.781865,-0.07803 0.504028,-0.122409 1.009189,-0.333573 1.533239,-0.626835 0.13208,-0.074 0.24243,-0.143152 0.327631,-0.202054 -0.16701,-0.220869 -0.361781,-0.449731 -0.568441,-0.679027 h -4.031795 c 0.0592,0.112186 0.120028,0.22464 0.196887,0.336929 0.45747,0.66843 1.12105,1.38648 1.902208,1.445389 0.236752,0.01781 0.573747,-0.05419 0.950847,-0.122989 0.377131,-0.0688 0.796208,-0.139027 1.205611,-0.09457 0.117911,0.01249 0.261318,0.01974 0.371038,0.02273 0.245377,0.007 0.457197,0.03274 0.640271,0.07234 0.172111,0.0372 0.281635,0.07906 0.281635,0.07906 0,0 -0.115564,-0.02045 -0.288353,-0.03565 -0.19517,-0.01659 -0.353349,-0.01987 -0.59118,-0.02687 0.157832,0.0491 0.337923,0.106564 0.528132,0.162264 0.208209,0.061 0.421508,0.117946 0.606166,0.152448 0.184661,0.0345 0.342313,0.04491 0.428913,0.0217 0.5821,-0.155971 0.912151,-0.371692 1.309481,-0.868682 0.31228,-0.39062 0.629222,-0.990383 0.913641,-1.543574 0.182682,-0.35532 0.348753,-0.691076 0.499711,-0.941544 0.118102,-0.19591 0.256267,-0.380849 0.405659,-0.536919 0.276738,-0.289049 0.609245,-0.481004 0.947229,-0.558106 0.295222,-0.0674 0.549826,-0.02315 0.719336,0.03876 0.168614,0.0615 0.251148,0.131268 0.251148,0.131258 0,10e-6 -0.08854,-0.0622 -0.257866,-0.111104 -0.171219,-0.0495 -0.418033,-0.07613 -0.697632,5.29e-4 -0.321982,0.0881 -0.631552,0.281641 -0.898652,0.559139 -0.04414,0.0459 -0.08672,0.09421 -0.127124,0.144179 0.376031,0.0573 0.651079,0.226621 0.857311,0.464571 0.06861,0.0792 0.12632,0.169881 0.182419,0.261483 h 2.007111 c -0.02241,-0.0479 -0.04531,-0.0961 -0.06511,-0.143661 -0.174009,-0.418171 -0.559401,-1.199497 -1.23145,-1.506884 -0.763442,-0.349211 -1.570009,-0.252291 -2.183329,-0.212392 -0.104068,0.007 -0.220228,0.01492 -0.315227,0.0072 -0.162841,-0.01381 -0.303633,-0.04842 -0.419095,-0.09612 -0.10899,-0.0451 -0.171566,-0.09198 -0.171566,-0.09198 0,0 0.07315,0.02691 0.184486,0.04961 0.105791,0.02151 0.207616,0.03201 0.331245,0.04341 -0.04766,-0.02379 -0.09484,-0.04876 -0.140044,-0.07286 -0.11925,-0.0632 -0.236289,-0.119409 -0.397391,-0.132807 z m 11.234457,0.04651 c -0.22384,0.01371 -0.517102,0.0984 -0.922941,0.324011 h -5.29e-4 c -0.201581,0.136801 -0.419515,0.270611 -0.597895,0.43098 -0.787249,0.71406 -1.205701,1.813661 -1.947169,2.612761 -0.166042,0.179001 -0.580477,0.728223 -1.042829,0.980302 0.335907,-0.27596 0.581655,-0.589605 0.766876,-0.943094 0.458939,-0.87788 0.649531,-2.017215 1.686719,-2.877344 0.04414,-0.0387 0.09696,-0.07571 0.143661,-0.107487 0.171979,-0.116771 0.359899,-0.151143 0.510048,-0.143145 0.14537,0.008 0.232542,0.05168 0.232542,0.05168 0,0 -0.09458,-0.02156 -0.23151,-0.0078 -0.134901,0.01331 -0.28548,0.0601 -0.43253,0.153479 0.123729,0.01421 0.230375,0.0735 0.313674,0.165881 0.133109,-0.111012 0.347977,-0.263589 0.482658,-0.348301 -0.07374,-0.0337 -0.169482,-0.06911 -0.334862,-0.109037 -0.40822,-0.0986 -0.797714,0.0021 -1.152385,0.218075 -0.354658,0.216321 -0.672378,0.549071 -0.926557,0.908473 -0.536411,0.758449 -1.199828,1.787835 -1.851568,2.511473 -0.109648,0.124812 -0.247367,0.262985 -0.375687,0.350885 -0.41406,0.283408 -0.903071,0.264649 -1.258837,0.17725 -0.354679,-0.0871 -0.555006,-0.21911 -0.555006,-0.21911 0,0 0.212106,0.111705 0.564306,0.175699 0.354708,0.0645 0.818692,0.0604 1.199412,-0.206187 0.08601,-0.0594 0.166195,-0.129024 0.240294,-0.207224 -0.275619,-0.214336 -0.54212,-0.508722 -0.779798,-0.834573 h -2.117699 c 0.236019,0.578549 0.489845,1.142352 1.04748,1.413349 0.647272,0.314592 1.292426,0.313015 1.951818,0.250116 0.07504,-0.007 0.142857,-0.01304 0.211357,-0.01394 0.195538,-0.004 0.401839,-0.04334 0.55449,-0.04134 0.153416,0.0021 0.249074,0.03669 0.249079,0.03669 0,0 -0.100211,-0.01701 -0.247012,5.29e-4 -0.05409,0.006 -0.117142,0.01881 -0.182936,0.03152 0.07263,0.01201 0.145841,0.02368 0.217041,0.03669 0.213259,0.0389 0.459774,0.149752 0.671795,0.100254 0.304157,-0.0709 0.533535,-0.276527 0.819587,-0.546738 0.286049,-0.270219 0.588626,-0.687549 0.950846,-1.339969 0.599379,-1.079651 1.089599,-2.129658 2.27893,-2.613279 0.04459,-0.0182 0.08852,-0.03226 0.133327,-0.04496 0.05375,-0.01529 0.107947,-0.02914 0.161747,-0.04134 0.284192,-0.065 0.544788,-0.05572 0.75551,-0.0021 0.199988,0.0509 0.313674,0.129191 0.313674,0.129191 0,0 -0.124693,-0.0584 -0.321942,-0.0863 -0.211871,-0.0299 -0.452144,-0.01664 -0.728123,0.04496 -0.0284,0.006 -0.05728,0.01368 -0.08578,0.02066 0.406701,0.15744 0.813345,0.577665 1.210262,1.069184 0.168262,0.20837 0.332613,0.429733 0.494544,0.649573 h 0.883152 c -0.0094,-0.01461 -0.01889,-0.02892 -0.02791,-0.04393 -0.552871,-0.864698 -1.055058,-1.560896 -1.557528,-1.805057 -0.01884,-0.009 -0.106096,-0.03683 -0.218075,-0.06563 -0.11199,-0.0288 -0.253495,-0.06148 -0.400492,-0.09198 -0.294042,-0.061 -0.61495,-0.111363 -0.747242,-0.103354 z m -23.054408,0.193786 v 5.29e-4 c -0.78708,0.0571 -1.205142,0.318942 -1.769401,0.817523 -1.96384,1.73531 -4.328932,2.771855 -5.447212,3.049426 -0.0275,0.007 -0.05715,0.0131 -0.08165,0.0181 -0.713729,0.153969 -1.294701,0.311467 -2.130102,0.362767 -0.120571,0.007 -0.235178,0.01521 -0.345199,0.02222 -0.359619,0.0235 -0.683832,0.03358 -1.001491,-0.03772 -0.59999,-0.136221 -0.902787,-0.501264 -0.902787,-0.501264 0,0 0.333182,0.334685 0.915191,0.438735 0.312081,0.0566 0.621533,0.03563 0.983403,0.01291 0.109826,-0.007 0.224894,-0.01585 0.345716,-0.02273 0.822586,-0.0505 1.39361,-0.204759 2.102712,-0.358119 -0.41802,-0.30565 -0.80818,-0.623287 -1.192691,-0.939477 h -7.992277 c -1.96e-4,0 -2.17e-4,0.0011 -5.29e-4,0.0011 -0.02281,0.0307 -0.05458,0.05581 -0.09457,0.05581 h -5.3e-4 l -1.111038,-0.03259 c -0.131305,0.19613 -0.283493,0.354457 -0.438216,0.465087 -0.211598,0.151292 -0.380855,0.196371 -0.380855,0.196371 0,0 0.165344,-0.0577 0.365869,-0.216524 0.141255,-0.11185 0.276696,-0.264271 0.397391,-0.447 l -0.182417,-0.0052 c -0.119547,0.193506 -0.295979,0.364652 -0.491961,0.512112 -0.17685,0.13308 -0.355145,0.232164 -0.527617,0.317294 0.06471,0.003 0.130927,0.01458 0.197406,0.02687 1.822514,-0.60429 4.239493,-0.543214 5.412073,-0.310573 0.836531,0.165975 1.373386,0.455226 1.776635,0.714165 0.40323,0.258951 0.672745,0.482669 0.970484,0.532268 0.09804,0.0164 0.328035,0.0254 0.638204,0.02739 0.310181,0.0021 0.702937,-0.0019 1.137399,-0.0088 0.868918,-0.01331 1.904878,-0.03682 2.783808,-0.04082 0.345522,-0.0021 0.730094,0.0568 1.068152,0.105421 0.338071,0.0488 0.633669,0.08439 0.778248,0.04909 0.322178,-0.0787 0.73147,-0.11508 1.62729,-0.56379 0.880772,-0.44119 2.23346,-1.273376 4.396113,-2.947106 0.134893,-0.104399 0.302091,-0.200467 0.443902,-0.273368 0.71314,-0.36745 1.480027,-0.491005 2.166276,-0.360185 0.597361,0.114851 1.087086,0.393078 1.394746,0.595829 0.318191,0.20969 0.48731,0.359669 0.48731,0.359669 0,0 -0.175475,-0.143063 -0.499195,-0.341582 -0.312841,-0.19186 -0.806333,-0.453838 -1.393714,-0.552937 -0.673248,-0.114681 -1.417722,0.01942 -2.115632,0.377237 -0.07728,0.0397 -0.15498,0.0827 -0.233579,0.128675 0.657532,0.14568 1.027557,0.390787 1.276408,0.688846 h 3.639571 c -0.938101,-0.852678 -1.997326,-1.58382 -2.821016,-1.804541 -0.553681,-0.14795 -1.209242,0.0641 -2.667022,-0.0031 -0.70376,-0.0321 -1.081669,-0.137113 -1.483629,-0.108003 z m -14.443045,0.114719 v 5.29e-4 c -0.107244,5.29e-4 -0.216056,0.0038 -0.327113,0.0088 -1.392115,0.0774 -2.819802,0.198607 -4.125846,0.572058 0.13253,-0.01381 0.273145,-0.01762 0.417547,-0.0098 0.355494,0.02011 0.728168,0.110414 1.023194,0.304374 0.357156,0.234771 0.507704,0.530932 0.630968,0.804604 0.01056,0.0235 0.02069,0.04625 0.03101,0.06924 l 0.181901,-0.0052 h 5.29e-4 c 0.03997,0 0.07176,0.025 0.09457,0.05581 1.98e-4,0 2.06e-4,0.0011 5.29e-4,0.0011 h 6.815603 c -0.287788,-0.22295 -0.57766,-0.439342 -0.879021,-0.635131 -1.065289,-0.692161 -2.255221,-1.176049 -3.863848,-1.166339 z m 46.332054,0.145211 c -0.187301,0.007 -0.356909,-0.006 -0.542083,0.06511 -0.02304,0.009 -0.08656,0.0683 -0.159166,0.16795 -0.07267,0.0996 -0.160477,0.237752 -0.260966,0.403593 -0.200962,0.331639 -0.453623,0.774612 -0.746723,1.248502 -0.191648,0.309909 -0.494025,0.721334 -0.816488,1.079006 -0.280731,0.311348 -0.536956,0.533214 -0.782897,0.681095 -0.169511,0.101897 -0.604155,0.317961 -1.062985,0.236159 0.24288,0.02439 0.682197,-0.114085 0.787548,-0.187584 -0.06573,-0.01971 -0.13735,-0.0618 -0.192751,-0.0832 -0.46957,-0.181041 -0.821497,-0.456568 -1.089859,-0.681096 -0.121375,-0.10156 -0.226377,-0.212775 -0.326077,-0.326596 l -0.862479,5.29e-4 c 0.01439,0.01881 0.02909,0.03787 0.04289,0.05478 0.426159,0.524287 1.08223,1.097616 1.851049,1.356505 h 5.29e-4 5.29e-4 c 0.03392,0.0127 0.162213,0.02074 0.310576,0.01085 0.384535,-0.02561 0.819356,-0.0651 1.215946,-0.24443 0.468439,-0.390602 0.889619,-0.916572 1.234548,-1.371494 0.639299,-0.876419 0.979929,-1.505432 1.179256,-1.842781 0.05913,-0.100049 0.128278,-0.216246 0.218075,-0.275436 0.108503,-0.0716 0.242715,-0.07742 0.352435,-0.03772 0.151988,0.0568 0.25441,0.16973 0.314709,0.247529 0.0628,0.081 0.09198,0.134876 0.09198,0.134876 0,0 -0.03966,-0.04701 -0.112654,-0.116271 -0.0699,-0.0664 -0.181314,-0.160883 -0.316775,-0.196371 -0.09215,-0.02511 -0.200136,-0.01397 -0.281638,0.04082 -0.04608,0.0303 -0.08382,0.0717 -0.11162,0.116274 0.284782,0.34385 0.520277,0.708099 0.825788,1.175639 h 0.696082 c -0.279501,-0.48233 -0.598384,-1.009139 -0.920874,-1.391131 -0.105127,-0.124529 -0.17702,-0.192075 -0.250114,-0.227375 -0.07306,-0.0357 -0.153291,-0.04273 -0.285771,-0.03773 z m -46.573899,0.113689 c 0.195495,0.003 0.404294,0.01214 0.613399,0.03204 0.303731,0.029 0.610084,0.0723 0.917773,0.133327 0.789491,0.156429 1.462673,0.425055 1.998845,0.709517 0.51249,0.27192 0.818037,0.509529 0.818037,0.509529 0,0 -0.318485,-0.220112 -0.837674,-0.470773 -0.547068,-0.264149 -1.21236,-0.506545 -1.99626,-0.661974 -0.304559,-0.0604 -0.608446,-0.103074 -0.909505,-0.131776 -0.824701,-0.079 -1.658297,-0.07906 -1.658297,-0.07906 v -5.29e-4 c 0,0 0.467201,-0.04931 1.053682,-0.04031 z m 51.10954,0.04806 c -0.18584,-0.01 -0.411448,0.05129 -0.673859,0.198953 0.235871,-0.02371 0.438441,-0.01347 0.60978,0.04134 0.22057,0.0707 0.388392,0.216136 0.502811,0.441833 0.09577,0.188892 0.199679,0.478671 0.230479,0.76843 0.0394,-0.24271 0.03162,-0.467545 0.0031,-0.658874 -0.0302,-0.202771 -0.07596,-0.334348 -0.07596,-0.334346 0,0 0.06616,0.12254 0.118856,0.32556 0.0545,0.2097 0.08357,0.477885 0.02635,0.764296 -0.04599,0.170728 -0.08094,0.323697 -0.143145,0.478007 -0.118769,0.29301 -0.348835,0.595056 -0.617532,0.840774 -0.319003,0.291741 -0.690849,0.50505 -1.009759,0.510046 -0.729779,0.0114 -1.195131,-0.481971 -1.489832,-0.934308 h -0.613399 -5.29e-4 c 0.197281,0.270846 0.446818,0.576022 0.75551,0.823722 0.382449,0.30688 0.8402,0.518152 1.363739,0.451652 0.458658,-0.0582 0.847619,-0.323281 1.148768,-0.688332 0.301191,-0.365067 0.512961,-0.829874 0.613399,-1.278475 0.116372,-0.519848 0.04401,-1.118338 -0.21704,-1.459857 -0.130503,-0.170751 -0.304549,-0.278423 -0.531752,-0.290422 z m -7.898741,0.03721 c -0.03768,0.0021 -0.07232,0.01447 -0.111622,0.04806 -0.462479,0.394361 -0.888736,0.924475 -1.256255,1.409734 h 0.736907 c 0.346231,-0.45329 0.634436,-0.761722 0.968417,-0.981853 0.04601,-0.0303 0.08961,-0.0571 0.13901,-0.077 0.21917,-0.0879 0.439703,-0.07216 0.607713,-0.02946 0.16238,0.0412 0.252182,0.106452 0.252182,0.106452 0,0 -0.100962,-0.04546 -0.259934,-0.06356 -0.166846,-0.019 -0.365329,-0.0021 -0.569989,0.0739 -0.0011,0 -0.0013,0.0011 -0.0021,0.0011 0.313788,0.27283 0.630425,0.609073 0.950846,0.970483 h 0.234093 c 0.0733,-0.121851 0.144309,-0.240067 0.219109,-0.366387 -0.275248,-0.349139 -0.531574,-0.673219 -0.705384,-0.81907 -0.08501,-0.0714 -0.212553,-0.0953 -0.348816,-0.10232 -0.136221,-0.007 -0.277011,0.0011 -0.389641,-0.02119 -0.132946,-0.02641 -0.243446,-0.0899 -0.337447,-0.124024 -0.047,-0.01669 -0.08942,-0.02681 -0.127122,-0.02479 z m -5.958811,0.177252 c -0.158871,0.12033 -0.303344,0.25346 -0.435115,0.398941 0.224092,0.266989 0.430594,0.577599 0.628386,0.8816 h 0.712102 c -0.272439,-0.422691 -0.56651,-0.867003 -0.905373,-1.280541 z m -41.216087,0.36948 c -0.176795,0.003 -0.33632,0.02553 -0.471289,0.05374 0.230153,0.0775 0.45226,0.177959 0.642855,0.310057 0.221182,0.153281 0.397677,0.336399 0.516247,0.530201 l 0.556554,-0.01654 c 0.0016,-0.0114 0.0032,-0.02291 0.0041,-0.03411 0.01426,-0.169691 -0.0057,-0.284232 -0.0057,-0.284221 0,-1.1e-5 0.03282,0.111524 0.03101,0.285255 -9.8e-5,0.0104 -0.0013,0.02125 -0.0021,0.03204 l 0.280601,-0.0083 c -0.07044,-0.15243 -0.152037,-0.312169 -0.346747,-0.490411 -0.270288,-0.247438 -0.657897,-0.351435 -1.023194,-0.374137 -0.06264,-0.004 -0.123351,-0.0046 -0.182417,-0.0036 z m 52.831915,0.250113 c -0.05073,2.65e-4 -0.102632,0.004 -0.155546,0.01291 0.258868,0.10537 0.474088,0.287433 0.618051,0.521933 0.025,0.0407 0.04588,0.0836 0.06718,0.12609 h 0.427881 c -0.0303,-0.0602 -0.06078,-0.120467 -0.09819,-0.174667 -0.205513,-0.29817 -0.504249,-0.488704 -0.85938,-0.486275 z m -10.772984,1.607656 c 0.25169,0.335767 0.534881,0.670529 0.849042,0.938959 0.191389,0.121661 0.541378,0.23391 0.872816,0.30851 0.16624,0.0375 0.328462,0.06652 0.464055,0.08371 0.135581,0.0172 0.246407,0.02201 0.302305,0.01601 0.188913,-0.02209 0.323141,-0.0885 0.52555,-0.329695 0.0409,-0.0488 0.08816,-0.110381 0.134361,-0.168981 -0.165434,-0.13226 -0.315661,-0.270497 -0.453721,-0.412896 -0.083,0.10468 -0.165412,0.205222 -0.247012,0.293521 -0.14037,0.151942 -0.279657,0.273579 -0.424265,0.319879 0.0089,0.005 0.01736,0.008 0.02635,0.01241 0.200229,0.0911 0.398913,0.114837 0.561724,0.08837 0.155112,-0.02522 0.248563,-0.0894 0.248563,-0.0894 0,0 -0.07865,0.0817 -0.238744,0.130741 -0.16555,0.0506 -0.384162,0.03917 -0.608232,-0.05012 -0.349618,-0.139351 -0.68371,-0.441696 -0.91054,-0.671796 -0.135377,-0.138858 -0.26846,-0.304205 -0.39429,-0.46922 z m 3.402375,0 c 0.07794,0.0816 0.16189,0.163775 0.221691,0.218073 0.05688,-0.0769 0.107183,-0.146376 0.159682,-0.218073 z m 3.976502,0 c 0.04074,0.0494 0.08118,0.0976 0.122473,0.14831 0.485381,0.596421 0.920078,1.00484 1.374076,1.24592 0.45402,0.24089 0.928098,0.31718 1.500683,0.245978 0.397901,-0.0495 0.682659,-0.175051 0.89917,-0.359151 -0.09901,-0.0337 -0.193053,-0.0785 -0.285252,-0.127124 -0.138221,0.116951 -0.283692,0.193887 -0.416513,0.246496 0.12527,-0.007 0.233617,-0.01971 0.337447,-0.04031 0.12418,-0.02461 0.205671,-0.05323 0.205671,-0.05323 0,0 -0.07187,0.04818 -0.193786,0.09508 -0.127394,0.049 -0.287763,0.08747 -0.469222,0.09147 -0.141671,0.004 -0.30099,-0.0011 -0.434081,-0.02687 -0.496739,-0.0961 -0.967073,-0.443801 -1.395264,-0.866613 -0.193744,-0.191339 -0.373703,-0.395936 -0.545703,-0.599962 z m 4.112927,0 c -0.01553,0.277866 -0.06995,0.509318 -0.155546,0.693497 0.09518,0.0482 0.197239,0.0863 0.306959,0.112139 0.08934,-0.170932 0.161443,-0.362234 0.223242,-0.573093 0.02199,-0.0752 0.03282,-0.153747 0.04082,-0.232543 z" />
</svg>
